<svg id="f4081daf-2c43-4e44-8e47-30487845dad8" data-name="Layer 1" xmlns="http://www.w3.org/2000/svg" viewBox="0 0 459 43"><title>logo</title><path d="M5.93164,38.79H3.74219V12.44336H5.93164v3.3208h.07275a6.41533,6.41533,0,0,1,1.22266-1.64209,7.12,7.12,0,0,1,1.64209-1.20459,8.81757,8.81757,0,0,1,1.84277-.72949,7.15542,7.15542,0,0,1,1.86133-.25537,9.015,9.015,0,0,1,3.9043.76611,7.27409,7.27409,0,0,1,2.64551,2.09815,8.56506,8.56506,0,0,1,1.51465,3.15673,15.48646,15.48646,0,0,1,.47412,3.9043,14.01279,14.01279,0,0,1-.51075,3.79492,9.41347,9.41347,0,0,1-1.55078,3.19336,7.68544,7.68544,0,0,1-2.62744,2.18945,8.03842,8.03842,0,0,1-3.74023.82081,8.71245,8.71245,0,0,1-3.8501-.894,6.7703,6.7703,0,0,1-2.90088-2.64551Zm0-16.82275a10.425,10.425,0,0,0,.438,3.04736,7.88505,7.88505,0,0,0,1.25879,2.51758,6.17659,6.17659,0,0,0,2.00732,1.71533,5.562,5.562,0,0,0,2.68164.63867,6.119,6.119,0,0,0,2.938-.67529,5.77557,5.77557,0,0,0,2.06152-1.84278,7.98038,7.98038,0,0,0,1.168-2.71875,12.35472,12.35472,0,0,0,.29151-3.33886,9.293,9.293,0,0,0-.49268-3.15625,6.72,6.72,0,0,0-1.36816-2.31739,5.85444,5.85444,0,0,0-2.04346-1.4414,6.50488,6.50488,0,0,0-2.55469-.49268,5.89151,5.89151,0,0,0-2.73681.62061,5.76018,5.76018,0,0,0-2.00684,1.69677,7.78391,7.78391,0,0,0-1.22266,2.5542A11.64933,11.64933,0,0,0,5.93164,21.96729Z"/><path d="M25.78271,31.3457V5.07227h2.18946V15.0708a13.91015,13.91015,0,0,1,2.71875-2.26269,6.25014,6.25014,0,0,1,3.375-.87549,8.62217,8.62217,0,0,1,3.248.60205,5.54091,5.54091,0,0,1,2.51758,2.09814,4.71516,4.71516,0,0,1,.82129,2.09815,19.09016,19.09016,0,0,1,.12793,2.24414V31.3457H38.59082v-12.334A5.6357,5.6357,0,0,0,37.46,15.18018a4.80417,4.80417,0,0,0-3.75879-1.27735,5.348,5.348,0,0,0-1.86084.31006,5.867,5.867,0,0,0-1.51465.82129,5.50192,5.50192,0,0,0-1.14941,1.16748,5.4083,5.4083,0,0,0-.73,1.38672,6.97974,6.97974,0,0,0-.40137,1.752q-.07325.83935-.07275,1.82422V31.3457Z"/><path d="M46.29053,8.31982V5.07227h2.40869V8.31982ZM46.3999,31.3457V12.44336h2.18946V31.3457Z"/><path d="M54.50049,31.3457V5.07227h2.18945V31.3457Z"/><path d="M70.958,20.3252q.61962-.07251,1.47754-.21875a5.58275,5.58275,0,0,0,1.40527-.40137,1.16232,1.16232,0,0,0,.6748-.85742,5.40012,5.40012,0,0,0,.12793-1.11328,3.7325,3.7325,0,0,0-1.07666-2.75489A5.02339,5.02339,0,0,0,69.936,13.90283a10.09138,10.09138,0,0,0-2.08008.20069,4.53587,4.53587,0,0,0-1.66016.69336,3.82733,3.82733,0,0,0-1.168,1.314,5.57246,5.57246,0,0,0-.602,2.06152H62.19971a6.7687,6.7687,0,0,1,.7666-2.86474,5.81232,5.81232,0,0,1,1.69678-1.9336,7.059,7.059,0,0,1,2.4082-1.09521,11.80974,11.80974,0,0,1,2.90137-.34619,11.19453,11.19453,0,0,1,2.68213.31006,6.22082,6.22082,0,0,1,2.18945.98535,4.58154,4.58154,0,0,1,1.45947,1.80615,6.52474,6.52474,0,0,1,.5293,2.77344V28.09814q0,1.27736.45605,1.62354.45556.34716,1.84278-.16406V31.273c-.17041.04883-.41944.12109-.748.21875a3.42037,3.42037,0,0,1-.96729.146,4.3743,4.3743,0,0,1-.98486-.10938,1.69323,1.69323,0,0,1-.876-.34668,2.1383,2.1383,0,0,1-.52929-.65723,2.70973,2.70973,0,0,1-.27344-.83886,6.04451,6.04451,0,0,1-.07324-.96729,9.50528,9.50528,0,0,1-3.17432,2.33545,9.34372,9.34372,0,0,1-3.86816.80274,8.661,8.661,0,0,1-2.39014-.32813,5.78513,5.78513,0,0,1-2.02539-1.022A5.06251,5.06251,0,0,1,61.835,28.80957a5.20582,5.20582,0,0,1-.51074-2.39014q0-4.81713,6.605-5.69287Zm3.68554,1.09472a10.7232,10.7232,0,0,1-2.81005.7666q-1.4231.1831-2.8462.292a8.02759,8.02759,0,0,0-3.92285,1.13086,3.24191,3.24191,0,0,0-1.40478,2.88281,3.12479,3.12479,0,0,0,.34668,1.51465,3.18723,3.18723,0,0,0,.91211,1.0581,3.85646,3.85646,0,0,0,1.31347.62061,5.82209,5.82209,0,0,0,1.51465.20068,9.94613,9.94613,0,0,0,2.5542-.32861,6.90481,6.90481,0,0,0,2.208-1.00342,5.12819,5.12819,0,0,0,1.55078-1.71533,4.95736,4.95736,0,0,0,.584-2.46289Z"/><path d="M97.1582,5.07227h2.18946V31.3457H97.1582V28.0249h-.07275a5.93993,5.93993,0,0,1-1.22266,1.66065,7.39265,7.39265,0,0,1-1.64209,1.18554,8.78711,8.78711,0,0,1-1.84277.73,7.157,7.157,0,0,1-1.86084.25538,9.01431,9.01431,0,0,1-3.90479-.76612,7.26494,7.26494,0,0,1-2.6455-2.09814,8.54919,8.54919,0,0,1-1.51416-3.15674,15.46063,15.46063,0,0,1-.47461-3.9043,14.00281,14.00281,0,0,1,.51074-3.79541A9.41627,9.41627,0,0,1,84.04,14.94287,7.6838,7.6838,0,0,1,86.667,12.75342a8.03914,8.03914,0,0,1,3.74072-.8208,8.71957,8.71957,0,0,1,3.84961.89355,6.783,6.783,0,0,1,2.90088,2.646Zm0,16.749a10.42847,10.42847,0,0,0-.4375-3.04688,7.90386,7.90386,0,0,0-1.25927-2.51806,6.19543,6.19543,0,0,0-2.00684-1.71485,5.57359,5.57359,0,0,0-2.68213-.63867,6.09378,6.09378,0,0,0-2.95557.67529A5.82594,5.82594,0,0,0,85.773,16.4209a7.961,7.961,0,0,0-1.16748,2.71826,12.32457,12.32457,0,0,0-.292,3.33936,9.291,9.291,0,0,0,.49267,3.15625,6.72867,6.72867,0,0,0,1.36865,2.31738,5.83916,5.83916,0,0,0,2.04346,1.4414,6.50777,6.50777,0,0,0,2.5542.49268,5.88271,5.88271,0,0,0,2.73682-.62061,5.75418,5.75418,0,0,0,2.00683-1.69677,7.78391,7.78391,0,0,0,1.22266-2.5542A11.6662,11.6662,0,0,0,97.1582,21.82129Z"/><path d="M106.208,22.40527a10.24307,10.24307,0,0,0,.40137,2.90137,6.99942,6.99942,0,0,0,1.186,2.37158,5.74367,5.74367,0,0,0,1.98877,1.606,6.12153,6.12153,0,0,0,2.77344.60205,6.03281,6.03281,0,0,0,3.68554-1.13135,5.45,5.45,0,0,0,2.04346-3.21142h2.44483a11.81088,11.81088,0,0,1-1.05811,2.5,7.71278,7.71278,0,0,1-1.64209,2.00683,7.09087,7.09087,0,0,1-2.33545,1.332,9.4723,9.4723,0,0,1-3.13818.47413,9.16507,9.16507,0,0,1-3.90479-.76612,7.35548,7.35548,0,0,1-2.70019-2.09814A8.83907,8.83907,0,0,1,104.3833,25.854a14.2227,14.2227,0,0,1-.51074-3.88671,12.38443,12.38443,0,0,1,.60205-3.9043,9.92725,9.92725,0,0,1,1.71533-3.19287,7.96454,7.96454,0,0,1,2.71826-2.15332,8.20681,8.20681,0,0,1,3.64942-.78418,7.53687,7.53687,0,0,1,6.13037,2.68164q2.2251,2.68212,2.18945,7.791Zm12.334-1.8247a8.6664,8.6664,0,0,0-.3833-2.60889,6.11387,6.11387,0,0,0-1.13086-2.1167,5.39621,5.39621,0,0,0-1.87939-1.42285,6.05376,6.05376,0,0,0-2.59082-.5293,5.75964,5.75964,0,0,0-2.57276.54737,5.91421,5.91421,0,0,0-1.89746,1.46,7.32168,7.32168,0,0,0-1.25928,2.11621,9.80663,9.80663,0,0,0-.62011,2.5542Z"/><path d="M125.4751,31.3457V5.07227h2.18945V31.3457Z"/><path d="M135.69189,38.79h-2.18945V12.44336h2.18945v3.3208h.07276a6.41529,6.41529,0,0,1,1.22265-1.64209,7.12,7.12,0,0,1,1.64209-1.20459,8.81787,8.81787,0,0,1,1.84278-.72949,7.15536,7.15536,0,0,1,1.86133-.25537,9.015,9.015,0,0,1,3.90429.76611,7.274,7.274,0,0,1,2.64551,2.09815,8.56506,8.56506,0,0,1,1.51465,3.15673,15.486,15.486,0,0,1,.47412,3.9043,14.01317,14.01317,0,0,1-.51074,3.79492,9.41347,9.41347,0,0,1-1.55078,3.19336,7.68553,7.68553,0,0,1-2.62744,2.18945,8.03849,8.03849,0,0,1-3.74024.82081,8.71245,8.71245,0,0,1-3.8501-.894,6.77036,6.77036,0,0,1-2.90088-2.64551Zm0-16.82275a10.425,10.425,0,0,0,.438,3.04736,7.88546,7.88546,0,0,0,1.25879,2.51758,6.17662,6.17662,0,0,0,2.00733,1.71533,5.562,5.562,0,0,0,2.68164.63867,6.119,6.119,0,0,0,2.938-.67529,5.77568,5.77568,0,0,0,2.06153-1.84278,7.98058,7.98058,0,0,0,1.168-2.71875,12.35513,12.35513,0,0,0,.2915-3.33886,9.293,9.293,0,0,0-.49267-3.15625,6.72,6.72,0,0,0-1.36817-2.31739,5.85435,5.85435,0,0,0-2.04346-1.4414,6.50483,6.50483,0,0,0-2.55468-.49268,5.89152,5.89152,0,0,0-2.73682.62061,5.76027,5.76027,0,0,0-2.00684,1.69677,7.7839,7.7839,0,0,0-1.22265,2.5542A11.64894,11.64894,0,0,0,135.69189,21.96729Z"/><path d="M155.543,31.3457V5.07227h2.18945V15.0708a13.91044,13.91044,0,0,1,2.71875-2.26269,6.25019,6.25019,0,0,1,3.375-.87549,8.62226,8.62226,0,0,1,3.24805.60205,5.541,5.541,0,0,1,2.51758,2.09814,4.71528,4.71528,0,0,1,.82129,2.09815,19.09016,19.09016,0,0,1,.12793,2.24414V31.3457h-2.19v-12.334a5.6357,5.6357,0,0,0-1.13086-3.83154,4.80416,4.80416,0,0,0-3.75878-1.27735,5.34791,5.34791,0,0,0-1.86084.31006,5.86688,5.86688,0,0,0-1.51465.82129,5.50173,5.50173,0,0,0-1.14942,1.16748,5.40861,5.40861,0,0,0-.73,1.38672,6.97926,6.97926,0,0,0-.40136,1.752q-.07325.83935-.07276,1.82422V31.3457Z"/><path d="M176.05078,8.31982V5.07227h2.40869V8.31982Zm.10938,23.02588V12.44336h2.18945V31.3457Z"/><path d="M192.61768,20.3252q.61962-.07251,1.47753-.21875a5.583,5.583,0,0,0,1.40528-.40137,1.16236,1.16236,0,0,0,.6748-.85742,5.40081,5.40081,0,0,0,.12793-1.11328,3.7325,3.7325,0,0,0-1.07666-2.75489,5.0234,5.0234,0,0,0-3.63086-1.07666,10.09152,10.09152,0,0,0-2.08008.20069,4.5359,4.5359,0,0,0-1.66015.69336,3.82733,3.82733,0,0,0-1.168,1.314,5.57246,5.57246,0,0,0-.602,2.06152h-2.22607a6.7687,6.7687,0,0,1,.7666-2.86474,5.81219,5.81219,0,0,1,1.69677-1.9336,7.059,7.059,0,0,1,2.40821-1.09521,11.80966,11.80966,0,0,1,2.90136-.34619,11.19447,11.19447,0,0,1,2.68213.31006,6.22079,6.22079,0,0,1,2.18946.98535,4.58163,4.58163,0,0,1,1.45947,1.80615,6.52474,6.52474,0,0,1,.5293,2.77344V28.09814q0,1.27736.45605,1.62354.45556.34716,1.84277-.16406V31.273c-.17041.04883-.41943.12109-.748.21875a3.42042,3.42042,0,0,1-.96729.146,4.3743,4.3743,0,0,1-.98486-.10938,1.6932,1.6932,0,0,1-.876-.34668,2.13815,2.13815,0,0,1-.52929-.65723,2.70973,2.70973,0,0,1-.27344-.83886,6.04451,6.04451,0,0,1-.07324-.96729,9.50528,9.50528,0,0,1-3.17432,2.33545,9.34376,9.34376,0,0,1-3.86816.80274,8.661,8.661,0,0,1-2.39014-.32813,5.78513,5.78513,0,0,1-2.02539-1.022,5.06239,5.06239,0,0,1-1.38672-1.69678,5.20582,5.20582,0,0,1-.51074-2.39014q0-4.81713,6.605-5.69287Zm3.68554,1.09472a10.72327,10.72327,0,0,1-2.81006.7666q-1.42309.1831-2.84619.292a8.02759,8.02759,0,0,0-3.92285,1.13086,3.24191,3.24191,0,0,0-1.40478,2.88281,3.12479,3.12479,0,0,0,.34668,1.51465,3.1872,3.1872,0,0,0,.9121,1.0581,3.8566,3.8566,0,0,0,1.31348.62061,5.82209,5.82209,0,0,0,1.51465.20068,9.94613,9.94613,0,0,0,2.5542-.32861,6.90481,6.90481,0,0,0,2.208-1.00342,5.12819,5.12819,0,0,0,1.55078-1.71533,4.95736,4.95736,0,0,0,.584-2.46289Z"/><path d="M228.9624,5.07227h2.18946V31.3457H228.9624V28.0249h-.07275a5.93993,5.93993,0,0,1-1.22266,1.66065,7.39265,7.39265,0,0,1-1.64209,1.18554,8.78711,8.78711,0,0,1-1.84277.73,7.157,7.157,0,0,1-1.86084.25538,9.01428,9.01428,0,0,1-3.90479-.76612,7.26494,7.26494,0,0,1-2.6455-2.09814,8.54919,8.54919,0,0,1-1.51416-3.15674,15.46063,15.46063,0,0,1-.47461-3.9043,14.00281,14.00281,0,0,1,.51074-3.79541,9.41627,9.41627,0,0,1,1.55127-3.19287,7.6838,7.6838,0,0,1,2.62695-2.18945,8.03914,8.03914,0,0,1,3.74072-.8208,8.71957,8.71957,0,0,1,3.84961.89355,6.783,6.783,0,0,1,2.90088,2.646Zm0,16.749a10.4288,10.4288,0,0,0-.4375-3.04688,7.90367,7.90367,0,0,0-1.25928-2.51806,6.19529,6.19529,0,0,0-2.00683-1.71485,5.57359,5.57359,0,0,0-2.68213-.63867,6.09378,6.09378,0,0,0-2.95557.67529,5.82585,5.82585,0,0,0-2.04394,1.84278,7.961,7.961,0,0,0-1.16748,2.71826,12.32457,12.32457,0,0,0-.292,3.33936,9.291,9.291,0,0,0,.49267,3.15625,6.72852,6.72852,0,0,0,1.36865,2.31738,5.83916,5.83916,0,0,0,2.04346,1.4414,6.50777,6.50777,0,0,0,2.5542.49268,5.88271,5.88271,0,0,0,2.73682-.62061,5.75418,5.75418,0,0,0,2.00683-1.69677,7.78391,7.78391,0,0,0,1.22266-2.5542A11.6662,11.6662,0,0,0,228.9624,21.82129Z" fill="#fff"/><path d="M245.34717,20.3252q.61962-.07251,1.47754-.21875a5.58275,5.58275,0,0,0,1.40527-.40137,1.16235,1.16235,0,0,0,.67481-.85742,5.40076,5.40076,0,0,0,.12792-1.11328,3.7325,3.7325,0,0,0-1.07666-2.75489,5.02339,5.02339,0,0,0-3.63085-1.07666,10.09138,10.09138,0,0,0-2.08008.20069,4.53587,4.53587,0,0,0-1.66016.69336,3.82733,3.82733,0,0,0-1.168,1.314,5.57246,5.57246,0,0,0-.602,2.06152h-2.22607a6.7687,6.7687,0,0,1,.7666-2.86474,5.81232,5.81232,0,0,1,1.69678-1.9336,7.059,7.059,0,0,1,2.4082-1.09521,11.80974,11.80974,0,0,1,2.90137-.34619,11.19453,11.19453,0,0,1,2.68213.31006,6.22082,6.22082,0,0,1,2.18945.98535,4.58154,4.58154,0,0,1,1.45947,1.80615,6.52474,6.52474,0,0,1,.5293,2.77344V28.09814q0,1.27736.45605,1.62354.45556.34716,1.84278-.16406V31.273c-.17041.04883-.41944.12109-.748.21875a3.42037,3.42037,0,0,1-.96729.146,4.3743,4.3743,0,0,1-.98486-.10938,1.69323,1.69323,0,0,1-.876-.34668,2.1383,2.1383,0,0,1-.52929-.65723,2.70973,2.70973,0,0,1-.27344-.83886,6.04451,6.04451,0,0,1-.07324-.96729,9.50528,9.50528,0,0,1-3.17432,2.33545,9.34372,9.34372,0,0,1-3.86816.80274,8.661,8.661,0,0,1-2.39014-.32813,5.78513,5.78513,0,0,1-2.02539-1.022,5.06251,5.06251,0,0,1-1.38672-1.69678,5.20582,5.20582,0,0,1-.51074-2.39014q0-4.81713,6.605-5.69287Zm3.68554,1.09472a10.7232,10.7232,0,0,1-2.81005.7666q-1.42309.1831-2.8462.292a8.02759,8.02759,0,0,0-3.92285,1.13086,3.24191,3.24191,0,0,0-1.40478,2.88281,3.12479,3.12479,0,0,0,.34668,1.51465,3.18723,3.18723,0,0,0,.91211,1.0581,3.85646,3.85646,0,0,0,1.31347.62061,5.82209,5.82209,0,0,0,1.51465.20068,9.94613,9.94613,0,0,0,2.5542-.32861,6.90481,6.90481,0,0,0,2.208-1.00342,5.12819,5.12819,0,0,0,1.55078-1.71533,4.95736,4.95736,0,0,0,.584-2.46289Z" fill="#fff"/><path d="M259.14062,31.3457h-2.18945V12.44336h2.18945V15.0708a13.91019,13.91019,0,0,1,2.71876-2.26269,6.25014,6.25014,0,0,1,3.375-.87549,8.62221,8.62221,0,0,1,3.248.60205A5.541,5.541,0,0,1,271,14.63281a4.71528,4.71528,0,0,1,.82129,2.09815,19.09016,19.09016,0,0,1,.12793,2.24414V31.3457h-2.18994v-12.334a5.6357,5.6357,0,0,0-1.13086-3.83154,4.8042,4.8042,0,0,0-3.75879-1.27735,5.348,5.348,0,0,0-1.86084.31006,5.867,5.867,0,0,0-1.51465.82129,5.50168,5.50168,0,0,0-1.14941,1.16748,5.4083,5.4083,0,0,0-.73,1.38672,6.97974,6.97974,0,0,0-.40137,1.752q-.07324.83935-.07276,1.82422Z" fill="#fff"/><path d="M290.63232,18.39111a6.35907,6.35907,0,0,0-2.00683-3.30224,5.45541,5.45541,0,0,0-3.61279-1.186,5.68647,5.68647,0,0,0-2.88282.69336,5.83744,5.83744,0,0,0-1.97021,1.84277,8.28859,8.28859,0,0,0-1.13135,2.59083,11.76555,11.76555,0,0,0-.36523,2.90136,12.2689,12.2689,0,0,0,.34668,2.919,7.80286,7.80286,0,0,0,1.11328,2.55469,5.72328,5.72328,0,0,0,1.97021,1.80615,5.881,5.881,0,0,0,2.91944.67529,5.58942,5.58942,0,0,0,3.92285-1.35059,6.27614,6.27614,0,0,0,1.87939-3.72168h2.33545a11.01384,11.01384,0,0,1-.93066,2.86426,7.55721,7.55721,0,0,1-1.64209,2.22608,7.0624,7.0624,0,0,1-2.39014,1.4414,10.23746,10.23746,0,0,1-7.0791-.25537,7.36128,7.36128,0,0,1-2.70069-2.09814,8.82924,8.82924,0,0,1-1.56884-3.15674,14.39427,14.39427,0,0,1-.51123-3.9043,12.55173,12.55173,0,0,1,.56591-3.77685,9.85222,9.85222,0,0,1,1.66016-3.19336,8.03763,8.03763,0,0,1,2.71875-2.20752,8.1772,8.1772,0,0,1,3.74024-.8208,8.43,8.43,0,0,1,5.30957,1.56884,7.28562,7.28562,0,0,1,2.53613,4.88965Z" fill="#fff"/><path d="M298.87939,22.40527a10.24342,10.24342,0,0,0,.40137,2.90137,6.99961,6.99961,0,0,0,1.186,2.37158,5.74358,5.74358,0,0,0,1.98877,1.606,6.12152,6.12152,0,0,0,2.77343.60205,6.03284,6.03284,0,0,0,3.68555-1.13135,5.45,5.45,0,0,0,2.04346-3.21142h2.44531a11.7872,11.7872,0,0,1-1.05859,2.5,7.71278,7.71278,0,0,1-1.64209,2.00683,7.09087,7.09087,0,0,1-2.33545,1.332,9.47232,9.47232,0,0,1-3.13819.47413,9.165,9.165,0,0,1-3.90478-.76612,7.35552,7.35552,0,0,1-2.7002-2.09814,8.83922,8.83922,0,0,1-1.56933-3.13819,14.2227,14.2227,0,0,1-.51074-3.88671,12.38443,12.38443,0,0,1,.60205-3.9043,9.92686,9.92686,0,0,1,1.71533-3.19287,7.96454,7.96454,0,0,1,2.71826-2.15332,8.20677,8.20677,0,0,1,3.64941-.78418,7.53689,7.53689,0,0,1,6.13038,2.68164q2.22508,2.68212,2.19042,7.791Zm12.334-1.8247a8.6664,8.6664,0,0,0-.3833-2.60889,6.11387,6.11387,0,0,0-1.13086-2.1167,5.39616,5.39616,0,0,0-1.8794-1.42285,6.0537,6.0537,0,0,0-2.59082-.5293,5.75963,5.75963,0,0,0-2.57275.54737,5.9141,5.9141,0,0,0-1.89746,1.46,7.32168,7.32168,0,0,0-1.25928,2.11621,9.80664,9.80664,0,0,0-.62012,2.5542Z" fill="#fff"/><path d="M330.4082,38.79h-2.18945V12.44336h2.18945v3.3208h.07325a6.404,6.404,0,0,1,1.22265-1.64209,7.09649,7.09649,0,0,1,1.6416-1.20459,8.81765,8.81765,0,0,1,1.84278-.72949,7.15816,7.15816,0,0,1,1.86132-.25537,9.01348,9.01348,0,0,1,3.9043.76611,7.27409,7.27409,0,0,1,2.64551,2.09815,8.56506,8.56506,0,0,1,1.51465,3.15673,15.50812,15.50812,0,0,1,.47461,3.9043,14.032,14.032,0,0,1-.51075,3.79492,9.433,9.433,0,0,1-1.55175,3.19336,7.67916,7.67916,0,0,1-2.627,2.18945,8.04123,8.04123,0,0,1-3.74023.82081,8.70884,8.70884,0,0,1-3.84961-.894,6.76607,6.76607,0,0,1-2.90137-2.64551Zm0-16.82275a10.42491,10.42491,0,0,0,.4375,3.04736,7.87713,7.87713,0,0,0,1.25977,2.51758,6.16984,6.16984,0,0,0,2.00683,1.71533,5.56067,5.56067,0,0,0,2.68165.63867,6.11569,6.11569,0,0,0,2.9375-.67529,5.77876,5.77876,0,0,0,2.0625-1.84278,7.97947,7.97947,0,0,0,1.167-2.71875,12.33507,12.33507,0,0,0,.292-3.33886,9.30518,9.30518,0,0,0-.49219-3.15625,6.737,6.737,0,0,0-1.36914-2.31739,5.84367,5.84367,0,0,0-2.043-1.4414,6.50483,6.50483,0,0,0-2.55468-.49268,5.88807,5.88807,0,0,0-2.73633.62061,5.7558,5.7558,0,0,0-2.00684,1.69677,7.755,7.755,0,0,0-1.22266,2.5542A11.63032,11.63032,0,0,0,330.4082,21.96729Z"/><path d="M352.55859,31.3457h-2.18945V12.44336h2.18945v3.53955h.07227a6.342,6.342,0,0,1,2.35352-3.15674,7.16845,7.16845,0,0,1,3.81347-.89355V14.3042a6.39955,6.39955,0,0,0-3.06543.584,5.03736,5.03736,0,0,0-1.915,1.67871,6.64676,6.64676,0,0,0-.98535,2.49952,16.10617,16.10617,0,0,0-.27344,3.01074Z"/><path d="M369.92773,31.85645a9.84189,9.84189,0,0,1-3.41211-.65674,7.65,7.65,0,0,1-2.77343-1.86084,8.93908,8.93908,0,0,1-1.87891-3.102,12.39645,12.39645,0,0,1-.69336-4.34229,13.35937,13.35937,0,0,1,.54688-3.88623,9.18854,9.18854,0,0,1,1.64258-3.15674,7.80129,7.80129,0,0,1,2.73632-2.13476,8.80218,8.80218,0,0,1,3.832-.78418,8.89151,8.89151,0,0,1,3.86817.78418,7.89225,7.89225,0,0,1,2.73633,2.1167,8.7281,8.7281,0,0,1,1.624,3.15625,13.96959,13.96959,0,0,1,.5293,3.90478,12.65693,12.65693,0,0,1-.62012,4.08692,9.213,9.213,0,0,1-1.76953,3.13818,7.80165,7.80165,0,0,1-2.77344,2.02539A8.86028,8.86028,0,0,1,369.92773,31.85645Zm6.42286-9.96192a12.91673,12.91673,0,0,0-.36524-3.13818,7.43913,7.43913,0,0,0-1.13086-2.53614,5.44535,5.44535,0,0,0-1.9707-1.69677,6.40016,6.40016,0,0,0-2.95606-.62061,5.98814,5.98814,0,0,0-2.9375.67529,5.75393,5.75393,0,0,0-1.98925,1.78809,7.8628,7.8628,0,0,0-1.13086,2.5542,12.0785,12.0785,0,0,0-.36524,2.97412,11.77273,11.77273,0,0,0,.41992,3.22949,7.56261,7.56261,0,0,0,1.22266,2.53614,5.47756,5.47756,0,0,0,2.00684,1.64209,6.28417,6.28417,0,0,0,2.77343.584,5.98534,5.98534,0,0,0,2.9375-.67529,5.6887,5.6887,0,0,0,1.98926-1.80615,8.09948,8.09948,0,0,0,1.13086-2.55469A11.85846,11.85846,0,0,0,376.35059,21.89453Z"/><path d="M385.47266,12.44336V33.86377a17.92991,17.92991,0,0,1-.10938,2.11621,3.89762,3.89762,0,0,1-.49219,1.55078,2.30206,2.30206,0,0,1-1.13183.94873,5.52636,5.52636,0,0,1-2.06153.31055,6.27642,6.27642,0,0,1-1.42285-.146V36.71a5.9408,5.9408,0,0,0,1.53223.01807,1.60153,1.60153,0,0,0,.91211-.41944,1.77853,1.77853,0,0,0,.457-.876,5.67678,5.67678,0,0,0,.127-1.27686V12.44336Zm.10937-4.12354h-2.4082V5.07227h2.4082Z"/><path d="M392.15039,22.40527a10.26063,10.26063,0,0,0,.40137,2.90137,6.999,6.999,0,0,0,1.18554,2.37158,5.75,5.75,0,0,0,1.98926,1.606,6.1201,6.1201,0,0,0,2.77344.60205,6.03286,6.03286,0,0,0,3.68555-1.13135,5.44944,5.44944,0,0,0,2.043-3.21142h2.44531a11.76151,11.76151,0,0,1-1.0586,2.5,7.69136,7.69136,0,0,1-1.6416,2.00683,7.0931,7.0931,0,0,1-2.33593,1.332,9.46525,9.46525,0,0,1-3.1377.47413,9.16276,9.16276,0,0,1-3.9043-.76612,7.36708,7.36708,0,0,1-2.70117-2.09814,8.84568,8.84568,0,0,1-1.56836-3.13819,14.2227,14.2227,0,0,1-.51074-3.88671,12.38434,12.38434,0,0,1,.60156-3.9043,9.93555,9.93555,0,0,1,1.71485-3.19287,7.97542,7.97542,0,0,1,2.71875-2.15332A8.20528,8.20528,0,0,1,398.5,11.93262a7.53786,7.53786,0,0,1,6.13086,2.68164q2.2251,2.68212,2.18945,7.791Zm12.334-1.8247a8.697,8.697,0,0,0-.38282-2.60889,6.10768,6.10768,0,0,0-1.13183-2.1167,5.39438,5.39438,0,0,0-1.87891-1.42285,6.05525,6.05525,0,0,0-2.59082-.5293,5.76326,5.76326,0,0,0-2.57324.54737,5.91931,5.91931,0,0,0-1.89746,1.46,7.33117,7.33117,0,0,0-1.25879,2.11621,9.78667,9.78667,0,0,0-.62012,2.5542Z"/><path d="M424.48145,18.39111a6.36538,6.36538,0,0,0-2.00684-3.30224,5.45677,5.45677,0,0,0-3.61231-1.186,5.684,5.684,0,0,0-2.88281.69336,5.839,5.839,0,0,0-1.9707,1.84277,8.31215,8.31215,0,0,0-1.13184,2.59083,11.78766,11.78766,0,0,0-.36425,2.90136,12.2689,12.2689,0,0,0,.34668,2.919,7.79109,7.79109,0,0,0,1.1123,2.55469,5.73358,5.73358,0,0,0,1.9707,1.80615,5.87908,5.87908,0,0,0,2.91992.67529,5.5911,5.5911,0,0,0,3.92286-1.35059,6.27843,6.27843,0,0,0,1.8789-3.72168h2.335a11.01288,11.01288,0,0,1-.92968,2.86426,7.57585,7.57585,0,0,1-1.64258,2.22608,7.06017,7.06017,0,0,1-2.38965,1.4414,10.24019,10.24019,0,0,1-7.08008-.25537,7.3554,7.3554,0,0,1-2.70019-2.09814,8.82988,8.82988,0,0,1-1.56934-3.15674,14.41364,14.41364,0,0,1-.51074-3.9043,12.5666,12.5666,0,0,1,.56543-3.77685,9.835,9.835,0,0,1,1.66113-3.19336,8.0388,8.0388,0,0,1,2.71777-2.20752,8.18425,8.18425,0,0,1,3.74121-.8208,8.42611,8.42611,0,0,1,5.3086,1.56884,7.2884,7.2884,0,0,1,2.53711,4.88965Z"/><path d="M438.01953,31.41846q-.40137.07324-1.05762.25586a5.47656,5.47656,0,0,1-1.46.18213,3.47843,3.47843,0,0,1-2.5-.82081,3.99881,3.99881,0,0,1-.85742-2.9375V14.26758h-2.66406V12.44336h2.66406V7.18848H434.334v5.25488h3.54v1.82422h-3.54V27.22217q0,.6936.03711,1.2041a1.99577,1.99577,0,0,0,.21875.83935,1.04157,1.04157,0,0,0,.56543.47461,3.13595,3.13595,0,0,0,1.07618.146,5.58933,5.58933,0,0,0,.89453-.07324q.45556-.07251.89355-.18213Z"/><path d="M442.7998,25.43408a5.55548,5.55548,0,0,0,1.84278,3.44824,6.24127,6.24127,0,0,0,3.81347,1.00391,6.597,6.597,0,0,0,2.08008-.292,4.16777,4.16777,0,0,0,1.44141-.78467,3.38262,3.38262,0,0,0,.85742-1.11279,3.05259,3.05259,0,0,0,.292-1.314,2.41807,2.41807,0,0,0-.89355-2.06152,6.76544,6.76544,0,0,0-2.24414-1.05859,28.9996,28.9996,0,0,0-2.91992-.65674,14.25782,14.25782,0,0,1-2.91895-.8208,5.8403,5.8403,0,0,1-2.24414-1.56934,4.23451,4.23451,0,0,1-.89453-2.88281,4.928,4.928,0,0,1,1.7334-3.88623,7.22824,7.22824,0,0,1,4.9082-1.51416,8.37926,8.37926,0,0,1,4.98145,1.36816,6.25731,6.25731,0,0,1,2.3164,4.57959h-2.22558a4.0965,4.0965,0,0,0-1.66016-3.08349,6.1852,6.1852,0,0,0-3.44824-.894,4.9137,4.9137,0,0,0-3.17481.89405,2.88949,2.88949,0,0,0-1.09472,2.35351,2.298,2.298,0,0,0,.89355,1.95264,7.26484,7.26484,0,0,0,2.24414,1.09472q1.35059.41969,2.91992.748a14.36418,14.36418,0,0,1,2.919.93066A6.407,6.407,0,0,1,454.56836,23.5a4.18321,4.18321,0,0,1,.89453,2.84619,4.806,4.806,0,0,1-.584,2.39063,5.08624,5.08624,0,0,1-1.60547,1.73291,7.4764,7.4764,0,0,1-2.42676,1.04,12.881,12.881,0,0,1-3.084.34668,8.32281,8.32281,0,0,1-2.97364-.49268,6.43812,6.43812,0,0,1-2.208-1.36816,6.29287,6.29287,0,0,1-1.42285-2.04346,7.195,7.195,0,0,1-.584-2.51807Z"/><path d="M5.93164,38.79H3.74219V12.44336H5.93164v3.3208h.07275a6.41533,6.41533,0,0,1,1.22266-1.64209,7.12,7.12,0,0,1,1.64209-1.20459,8.81757,8.81757,0,0,1,1.84277-.72949,7.15542,7.15542,0,0,1,1.86133-.25537,9.015,9.015,0,0,1,3.9043.76611,7.27409,7.27409,0,0,1,2.64551,2.09815,8.56506,8.56506,0,0,1,1.51465,3.15673,15.48646,15.48646,0,0,1,.47412,3.9043,14.01279,14.01279,0,0,1-.51075,3.79492,9.41347,9.41347,0,0,1-1.55078,3.19336,7.68544,7.68544,0,0,1-2.62744,2.18945,8.03842,8.03842,0,0,1-3.74023.82081,8.71245,8.71245,0,0,1-3.8501-.894,6.7703,6.7703,0,0,1-2.90088-2.64551Zm0-16.82275a10.425,10.425,0,0,0,.438,3.04736,7.88505,7.88505,0,0,0,1.25879,2.51758,6.17659,6.17659,0,0,0,2.00732,1.71533,5.562,5.562,0,0,0,2.68164.63867,6.119,6.119,0,0,0,2.938-.67529,5.77557,5.77557,0,0,0,2.06152-1.84278,7.98038,7.98038,0,0,0,1.168-2.71875,12.35472,12.35472,0,0,0,.29151-3.33886,9.293,9.293,0,0,0-.49268-3.15625,6.72,6.72,0,0,0-1.36816-2.31739,5.85444,5.85444,0,0,0-2.04346-1.4414,6.50488,6.50488,0,0,0-2.55469-.49268,5.89151,5.89151,0,0,0-2.73681.62061,5.76018,5.76018,0,0,0-2.00684,1.69677,7.78391,7.78391,0,0,0-1.22266,2.5542A11.64933,11.64933,0,0,0,5.93164,21.96729Z" fill="none" stroke="#000"/><path d="M25.78271,31.3457V5.07227h2.18946V15.0708a13.91015,13.91015,0,0,1,2.71875-2.26269,6.25014,6.25014,0,0,1,3.375-.87549,8.62217,8.62217,0,0,1,3.248.60205,5.54091,5.54091,0,0,1,2.51758,2.09814,4.71516,4.71516,0,0,1,.82129,2.09815,19.09016,19.09016,0,0,1,.12793,2.24414V31.3457H38.59082v-12.334A5.6357,5.6357,0,0,0,37.46,15.18018a4.80417,4.80417,0,0,0-3.75879-1.27735,5.348,5.348,0,0,0-1.86084.31006,5.867,5.867,0,0,0-1.51465.82129,5.50192,5.50192,0,0,0-1.14941,1.16748,5.4083,5.4083,0,0,0-.73,1.38672,6.97974,6.97974,0,0,0-.40137,1.752q-.07325.83935-.07275,1.82422V31.3457Z" fill="none" stroke="#000"/><path d="M46.29053,8.31982V5.07227h2.40869V8.31982ZM46.3999,31.3457V12.44336h2.18946V31.3457Z" fill="none" stroke="#000"/><path d="M54.50049,31.3457V5.07227h2.18945V31.3457Z" fill="none" stroke="#000"/><path d="M70.958,20.3252q.61962-.07251,1.47754-.21875a5.58275,5.58275,0,0,0,1.40527-.40137,1.16232,1.16232,0,0,0,.6748-.85742,5.40012,5.40012,0,0,0,.12793-1.11328,3.7325,3.7325,0,0,0-1.07666-2.75489A5.02339,5.02339,0,0,0,69.936,13.90283a10.09138,10.09138,0,0,0-2.08008.20069,4.53587,4.53587,0,0,0-1.66016.69336,3.82733,3.82733,0,0,0-1.168,1.314,5.57246,5.57246,0,0,0-.602,2.06152H62.19971a6.7687,6.7687,0,0,1,.7666-2.86474,5.81232,5.81232,0,0,1,1.69678-1.9336,7.059,7.059,0,0,1,2.4082-1.09521,11.80974,11.80974,0,0,1,2.90137-.34619,11.19453,11.19453,0,0,1,2.68213.31006,6.22082,6.22082,0,0,1,2.18945.98535,4.58154,4.58154,0,0,1,1.45947,1.80615,6.52474,6.52474,0,0,1,.5293,2.77344V28.09814q0,1.27736.45605,1.62354.45556.34716,1.84278-.16406V31.273c-.17041.04883-.41944.12109-.748.21875a3.42037,3.42037,0,0,1-.96729.146,4.3743,4.3743,0,0,1-.98486-.10938,1.69323,1.69323,0,0,1-.876-.34668,2.1383,2.1383,0,0,1-.52929-.65723,2.70973,2.70973,0,0,1-.27344-.83886,6.04451,6.04451,0,0,1-.07324-.96729,9.50528,9.50528,0,0,1-3.17432,2.33545,9.34372,9.34372,0,0,1-3.86816.80274,8.661,8.661,0,0,1-2.39014-.32813,5.78513,5.78513,0,0,1-2.02539-1.022A5.06251,5.06251,0,0,1,61.835,28.80957a5.20582,5.20582,0,0,1-.51074-2.39014q0-4.81713,6.605-5.69287Zm3.68554,1.09472a10.7232,10.7232,0,0,1-2.81005.7666q-1.4231.1831-2.8462.292a8.02759,8.02759,0,0,0-3.92285,1.13086,3.24191,3.24191,0,0,0-1.40478,2.88281,3.12479,3.12479,0,0,0,.34668,1.51465,3.18723,3.18723,0,0,0,.91211,1.0581,3.85646,3.85646,0,0,0,1.31347.62061,5.82209,5.82209,0,0,0,1.51465.20068,9.94613,9.94613,0,0,0,2.5542-.32861,6.90481,6.90481,0,0,0,2.208-1.00342,5.12819,5.12819,0,0,0,1.55078-1.71533,4.95736,4.95736,0,0,0,.584-2.46289Z" fill="none" stroke="#000"/><path d="M97.1582,5.07227h2.18946V31.3457H97.1582V28.0249h-.07275a5.93993,5.93993,0,0,1-1.22266,1.66065,7.39265,7.39265,0,0,1-1.64209,1.18554,8.78711,8.78711,0,0,1-1.84277.73,7.157,7.157,0,0,1-1.86084.25538,9.01431,9.01431,0,0,1-3.90479-.76612,7.26494,7.26494,0,0,1-2.6455-2.09814,8.54919,8.54919,0,0,1-1.51416-3.15674,15.46063,15.46063,0,0,1-.47461-3.9043,14.00281,14.00281,0,0,1,.51074-3.79541A9.41627,9.41627,0,0,1,84.04,14.94287,7.6838,7.6838,0,0,1,86.667,12.75342a8.03914,8.03914,0,0,1,3.74072-.8208,8.71957,8.71957,0,0,1,3.84961.89355,6.783,6.783,0,0,1,2.90088,2.646Zm0,16.749a10.42847,10.42847,0,0,0-.4375-3.04688,7.90386,7.90386,0,0,0-1.25927-2.51806,6.19543,6.19543,0,0,0-2.00684-1.71485,5.57359,5.57359,0,0,0-2.68213-.63867,6.09378,6.09378,0,0,0-2.95557.67529A5.82594,5.82594,0,0,0,85.773,16.4209a7.961,7.961,0,0,0-1.16748,2.71826,12.32457,12.32457,0,0,0-.292,3.33936,9.291,9.291,0,0,0,.49267,3.15625,6.72867,6.72867,0,0,0,1.36865,2.31738,5.83916,5.83916,0,0,0,2.04346,1.4414,6.50777,6.50777,0,0,0,2.5542.49268,5.88271,5.88271,0,0,0,2.73682-.62061,5.75418,5.75418,0,0,0,2.00683-1.69677,7.78391,7.78391,0,0,0,1.22266-2.5542A11.6662,11.6662,0,0,0,97.1582,21.82129Z" fill="none" stroke="#000"/><path d="M106.208,22.40527a10.24307,10.24307,0,0,0,.40137,2.90137,6.99942,6.99942,0,0,0,1.186,2.37158,5.74367,5.74367,0,0,0,1.98877,1.606,6.12153,6.12153,0,0,0,2.77344.60205,6.03281,6.03281,0,0,0,3.68554-1.13135,5.45,5.45,0,0,0,2.04346-3.21142h2.44483a11.81088,11.81088,0,0,1-1.05811,2.5,7.71278,7.71278,0,0,1-1.64209,2.00683,7.09087,7.09087,0,0,1-2.33545,1.332,9.4723,9.4723,0,0,1-3.13818.47413,9.16507,9.16507,0,0,1-3.90479-.76612,7.35548,7.35548,0,0,1-2.70019-2.09814A8.83907,8.83907,0,0,1,104.3833,25.854a14.2227,14.2227,0,0,1-.51074-3.88671,12.38443,12.38443,0,0,1,.60205-3.9043,9.92725,9.92725,0,0,1,1.71533-3.19287,7.96454,7.96454,0,0,1,2.71826-2.15332,8.20681,8.20681,0,0,1,3.64942-.78418,7.53687,7.53687,0,0,1,6.13037,2.68164q2.2251,2.68212,2.18945,7.791Zm12.334-1.8247a8.6664,8.6664,0,0,0-.3833-2.60889,6.11387,6.11387,0,0,0-1.13086-2.1167,5.39621,5.39621,0,0,0-1.87939-1.42285,6.05376,6.05376,0,0,0-2.59082-.5293,5.75964,5.75964,0,0,0-2.57276.54737,5.91421,5.91421,0,0,0-1.89746,1.46,7.32168,7.32168,0,0,0-1.25928,2.11621,9.80663,9.80663,0,0,0-.62011,2.5542Z" fill="none" stroke="#000"/><path d="M125.4751,31.3457V5.07227h2.18945V31.3457Z" fill="none" stroke="#000"/><path d="M135.69189,38.79h-2.18945V12.44336h2.18945v3.3208h.07276a6.41529,6.41529,0,0,1,1.22265-1.64209,7.12,7.12,0,0,1,1.64209-1.20459,8.81787,8.81787,0,0,1,1.84278-.72949,7.15536,7.15536,0,0,1,1.86133-.25537,9.015,9.015,0,0,1,3.90429.76611,7.274,7.274,0,0,1,2.64551,2.09815,8.56506,8.56506,0,0,1,1.51465,3.15673,15.486,15.486,0,0,1,.47412,3.9043,14.01317,14.01317,0,0,1-.51074,3.79492,9.41347,9.41347,0,0,1-1.55078,3.19336,7.68553,7.68553,0,0,1-2.62744,2.18945,8.03849,8.03849,0,0,1-3.74024.82081,8.71245,8.71245,0,0,1-3.8501-.894,6.77036,6.77036,0,0,1-2.90088-2.64551Zm0-16.82275a10.425,10.425,0,0,0,.438,3.04736,7.88546,7.88546,0,0,0,1.25879,2.51758,6.17662,6.17662,0,0,0,2.00733,1.71533,5.562,5.562,0,0,0,2.68164.63867,6.119,6.119,0,0,0,2.938-.67529,5.77568,5.77568,0,0,0,2.06153-1.84278,7.98058,7.98058,0,0,0,1.168-2.71875,12.35513,12.35513,0,0,0,.2915-3.33886,9.293,9.293,0,0,0-.49267-3.15625,6.72,6.72,0,0,0-1.36817-2.31739,5.85435,5.85435,0,0,0-2.04346-1.4414,6.50483,6.50483,0,0,0-2.55468-.49268,5.89152,5.89152,0,0,0-2.73682.62061,5.76027,5.76027,0,0,0-2.00684,1.69677,7.7839,7.7839,0,0,0-1.22265,2.5542A11.64894,11.64894,0,0,0,135.69189,21.96729Z" fill="none" stroke="#000"/><path d="M155.543,31.3457V5.07227h2.18945V15.0708a13.91044,13.91044,0,0,1,2.71875-2.26269,6.25019,6.25019,0,0,1,3.375-.87549,8.62226,8.62226,0,0,1,3.24805.60205,5.541,5.541,0,0,1,2.51758,2.09814,4.71528,4.71528,0,0,1,.82129,2.09815,19.09016,19.09016,0,0,1,.12793,2.24414V31.3457h-2.19v-12.334a5.6357,5.6357,0,0,0-1.13086-3.83154,4.80416,4.80416,0,0,0-3.75878-1.27735,5.34791,5.34791,0,0,0-1.86084.31006,5.86688,5.86688,0,0,0-1.51465.82129,5.50173,5.50173,0,0,0-1.14942,1.16748,5.40861,5.40861,0,0,0-.73,1.38672,6.97926,6.97926,0,0,0-.40136,1.752q-.07325.83935-.07276,1.82422V31.3457Z" fill="none" stroke="#000"/><path d="M176.05078,8.31982V5.07227h2.40869V8.31982Zm.10938,23.02588V12.44336h2.18945V31.3457Z" fill="none" stroke="#000"/><path d="M192.61768,20.3252q.61962-.07251,1.47753-.21875a5.583,5.583,0,0,0,1.40528-.40137,1.16236,1.16236,0,0,0,.6748-.85742,5.40081,5.40081,0,0,0,.12793-1.11328,3.7325,3.7325,0,0,0-1.07666-2.75489,5.0234,5.0234,0,0,0-3.63086-1.07666,10.09152,10.09152,0,0,0-2.08008.20069,4.5359,4.5359,0,0,0-1.66015.69336,3.82733,3.82733,0,0,0-1.168,1.314,5.57246,5.57246,0,0,0-.602,2.06152h-2.22607a6.7687,6.7687,0,0,1,.7666-2.86474,5.81219,5.81219,0,0,1,1.69677-1.9336,7.059,7.059,0,0,1,2.40821-1.09521,11.80966,11.80966,0,0,1,2.90136-.34619,11.19447,11.19447,0,0,1,2.68213.31006,6.22079,6.22079,0,0,1,2.18946.98535,4.58163,4.58163,0,0,1,1.45947,1.80615,6.52474,6.52474,0,0,1,.5293,2.77344V28.09814q0,1.27736.45605,1.62354.45556.34716,1.84277-.16406V31.273c-.17041.04883-.41943.12109-.748.21875a3.42042,3.42042,0,0,1-.96729.146,4.3743,4.3743,0,0,1-.98486-.10938,1.6932,1.6932,0,0,1-.876-.34668,2.13815,2.13815,0,0,1-.52929-.65723,2.70973,2.70973,0,0,1-.27344-.83886,6.04451,6.04451,0,0,1-.07324-.96729,9.50528,9.50528,0,0,1-3.17432,2.33545,9.34376,9.34376,0,0,1-3.86816.80274,8.661,8.661,0,0,1-2.39014-.32813,5.78513,5.78513,0,0,1-2.02539-1.022,5.06239,5.06239,0,0,1-1.38672-1.69678,5.20582,5.20582,0,0,1-.51074-2.39014q0-4.81713,6.605-5.69287Zm3.68554,1.09472a10.72327,10.72327,0,0,1-2.81006.7666q-1.42309.1831-2.84619.292a8.02759,8.02759,0,0,0-3.92285,1.13086,3.24191,3.24191,0,0,0-1.40478,2.88281,3.12479,3.12479,0,0,0,.34668,1.51465,3.1872,3.1872,0,0,0,.9121,1.0581,3.8566,3.8566,0,0,0,1.31348.62061,5.82209,5.82209,0,0,0,1.51465.20068,9.94613,9.94613,0,0,0,2.5542-.32861,6.90481,6.90481,0,0,0,2.208-1.00342,5.12819,5.12819,0,0,0,1.55078-1.71533,4.95736,4.95736,0,0,0,.584-2.46289Z" fill="none" stroke="#000"/><path d="M228.9624,5.07227h2.18946V31.3457H228.9624V28.0249h-.07275a5.93993,5.93993,0,0,1-1.22266,1.66065,7.39265,7.39265,0,0,1-1.64209,1.18554,8.78711,8.78711,0,0,1-1.84277.73,7.157,7.157,0,0,1-1.86084.25538,9.01428,9.01428,0,0,1-3.90479-.76612,7.26494,7.26494,0,0,1-2.6455-2.09814,8.54919,8.54919,0,0,1-1.51416-3.15674,15.46063,15.46063,0,0,1-.47461-3.9043,14.00281,14.00281,0,0,1,.51074-3.79541,9.41627,9.41627,0,0,1,1.55127-3.19287,7.6838,7.6838,0,0,1,2.62695-2.18945,8.03914,8.03914,0,0,1,3.74072-.8208,8.71957,8.71957,0,0,1,3.84961.89355,6.783,6.783,0,0,1,2.90088,2.646Zm0,16.749a10.4288,10.4288,0,0,0-.4375-3.04688,7.90367,7.90367,0,0,0-1.25928-2.51806,6.19529,6.19529,0,0,0-2.00683-1.71485,5.57359,5.57359,0,0,0-2.68213-.63867,6.09378,6.09378,0,0,0-2.95557.67529,5.82585,5.82585,0,0,0-2.04394,1.84278,7.961,7.961,0,0,0-1.16748,2.71826,12.32457,12.32457,0,0,0-.292,3.33936,9.291,9.291,0,0,0,.49267,3.15625,6.72852,6.72852,0,0,0,1.36865,2.31738,5.83916,5.83916,0,0,0,2.04346,1.4414,6.50777,6.50777,0,0,0,2.5542.49268,5.88271,5.88271,0,0,0,2.73682-.62061,5.75418,5.75418,0,0,0,2.00683-1.69677,7.78391,7.78391,0,0,0,1.22266-2.5542A11.6662,11.6662,0,0,0,228.9624,21.82129Z" fill="none" stroke="#000"/><path d="M245.34717,20.3252q.61962-.07251,1.47754-.21875a5.58275,5.58275,0,0,0,1.40527-.40137,1.16235,1.16235,0,0,0,.67481-.85742,5.40076,5.40076,0,0,0,.12792-1.11328,3.7325,3.7325,0,0,0-1.07666-2.75489,5.02339,5.02339,0,0,0-3.63085-1.07666,10.09138,10.09138,0,0,0-2.08008.20069,4.53587,4.53587,0,0,0-1.66016.69336,3.82733,3.82733,0,0,0-1.168,1.314,5.57246,5.57246,0,0,0-.602,2.06152h-2.22607a6.7687,6.7687,0,0,1,.7666-2.86474,5.81232,5.81232,0,0,1,1.69678-1.9336,7.059,7.059,0,0,1,2.4082-1.09521,11.80974,11.80974,0,0,1,2.90137-.34619,11.19453,11.19453,0,0,1,2.68213.31006,6.22082,6.22082,0,0,1,2.18945.98535,4.58154,4.58154,0,0,1,1.45947,1.80615,6.52474,6.52474,0,0,1,.5293,2.77344V28.09814q0,1.27736.45605,1.62354.45556.34716,1.84278-.16406V31.273c-.17041.04883-.41944.12109-.748.21875a3.42037,3.42037,0,0,1-.96729.146,4.3743,4.3743,0,0,1-.98486-.10938,1.69323,1.69323,0,0,1-.876-.34668,2.1383,2.1383,0,0,1-.52929-.65723,2.70973,2.70973,0,0,1-.27344-.83886,6.04451,6.04451,0,0,1-.07324-.96729,9.50528,9.50528,0,0,1-3.17432,2.33545,9.34372,9.34372,0,0,1-3.86816.80274,8.661,8.661,0,0,1-2.39014-.32813,5.78513,5.78513,0,0,1-2.02539-1.022,5.06251,5.06251,0,0,1-1.38672-1.69678,5.20582,5.20582,0,0,1-.51074-2.39014q0-4.81713,6.605-5.69287Zm3.68554,1.09472a10.7232,10.7232,0,0,1-2.81005.7666q-1.42309.1831-2.8462.292a8.02759,8.02759,0,0,0-3.92285,1.13086,3.24191,3.24191,0,0,0-1.40478,2.88281,3.12479,3.12479,0,0,0,.34668,1.51465,3.18723,3.18723,0,0,0,.91211,1.0581,3.85646,3.85646,0,0,0,1.31347.62061,5.82209,5.82209,0,0,0,1.51465.20068,9.94613,9.94613,0,0,0,2.5542-.32861,6.90481,6.90481,0,0,0,2.208-1.00342,5.12819,5.12819,0,0,0,1.55078-1.71533,4.95736,4.95736,0,0,0,.584-2.46289Z" fill="none" stroke="#000"/><path d="M259.14062,31.3457h-2.18945V12.44336h2.18945V15.0708a13.91019,13.91019,0,0,1,2.71876-2.26269,6.25014,6.25014,0,0,1,3.375-.87549,8.62221,8.62221,0,0,1,3.248.60205A5.541,5.541,0,0,1,271,14.63281a4.71528,4.71528,0,0,1,.82129,2.09815,19.09016,19.09016,0,0,1,.12793,2.24414V31.3457h-2.18994v-12.334a5.6357,5.6357,0,0,0-1.13086-3.83154,4.8042,4.8042,0,0,0-3.75879-1.27735,5.348,5.348,0,0,0-1.86084.31006,5.867,5.867,0,0,0-1.51465.82129,5.50168,5.50168,0,0,0-1.14941,1.16748,5.4083,5.4083,0,0,0-.73,1.38672,6.97974,6.97974,0,0,0-.40137,1.752q-.07324.83935-.07276,1.82422Z" fill="none" stroke="#000"/><path d="M290.63232,18.39111a6.35907,6.35907,0,0,0-2.00683-3.30224,5.45541,5.45541,0,0,0-3.61279-1.186,5.68647,5.68647,0,0,0-2.88282.69336,5.83744,5.83744,0,0,0-1.97021,1.84277,8.28859,8.28859,0,0,0-1.13135,2.59083,11.76555,11.76555,0,0,0-.36523,2.90136,12.2689,12.2689,0,0,0,.34668,2.919,7.80286,7.80286,0,0,0,1.11328,2.55469,5.72328,5.72328,0,0,0,1.97021,1.80615,5.881,5.881,0,0,0,2.91944.67529,5.58942,5.58942,0,0,0,3.92285-1.35059,6.27614,6.27614,0,0,0,1.87939-3.72168h2.33545a11.01384,11.01384,0,0,1-.93066,2.86426,7.55721,7.55721,0,0,1-1.64209,2.22608,7.0624,7.0624,0,0,1-2.39014,1.4414,10.23746,10.23746,0,0,1-7.0791-.25537,7.36128,7.36128,0,0,1-2.70069-2.09814,8.82924,8.82924,0,0,1-1.56884-3.15674,14.39427,14.39427,0,0,1-.51123-3.9043,12.55173,12.55173,0,0,1,.56591-3.77685,9.85222,9.85222,0,0,1,1.66016-3.19336,8.03763,8.03763,0,0,1,2.71875-2.20752,8.1772,8.1772,0,0,1,3.74024-.8208,8.43,8.43,0,0,1,5.30957,1.56884,7.28562,7.28562,0,0,1,2.53613,4.88965Z" fill="none" stroke="#000"/><path d="M298.87939,22.40527a10.24342,10.24342,0,0,0,.40137,2.90137,6.99961,6.99961,0,0,0,1.186,2.37158,5.74358,5.74358,0,0,0,1.98877,1.606,6.12152,6.12152,0,0,0,2.77343.60205,6.03284,6.03284,0,0,0,3.68555-1.13135,5.45,5.45,0,0,0,2.04346-3.21142h2.44531a11.7872,11.7872,0,0,1-1.05859,2.5,7.71278,7.71278,0,0,1-1.64209,2.00683,7.09087,7.09087,0,0,1-2.33545,1.332,9.47232,9.47232,0,0,1-3.13819.47413,9.165,9.165,0,0,1-3.90478-.76612,7.35552,7.35552,0,0,1-2.7002-2.09814,8.83922,8.83922,0,0,1-1.56933-3.13819,14.2227,14.2227,0,0,1-.51074-3.88671,12.38443,12.38443,0,0,1,.60205-3.9043,9.92686,9.92686,0,0,1,1.71533-3.19287,7.96454,7.96454,0,0,1,2.71826-2.15332,8.20677,8.20677,0,0,1,3.64941-.78418,7.53689,7.53689,0,0,1,6.13038,2.68164q2.22508,2.68212,2.19042,7.791Zm12.334-1.8247a8.6664,8.6664,0,0,0-.3833-2.60889,6.11387,6.11387,0,0,0-1.13086-2.1167,5.39616,5.39616,0,0,0-1.8794-1.42285,6.0537,6.0537,0,0,0-2.59082-.5293,5.75963,5.75963,0,0,0-2.57275.54737,5.9141,5.9141,0,0,0-1.89746,1.46,7.32168,7.32168,0,0,0-1.25928,2.11621,9.80664,9.80664,0,0,0-.62012,2.5542Z" fill="none" stroke="#000"/><path d="M330.4082,38.79h-2.18945V12.44336h2.18945v3.3208h.07325a6.404,6.404,0,0,1,1.22265-1.64209,7.09649,7.09649,0,0,1,1.6416-1.20459,8.81765,8.81765,0,0,1,1.84278-.72949,7.15816,7.15816,0,0,1,1.86132-.25537,9.01348,9.01348,0,0,1,3.9043.76611,7.27409,7.27409,0,0,1,2.64551,2.09815,8.56506,8.56506,0,0,1,1.51465,3.15673,15.50812,15.50812,0,0,1,.47461,3.9043,14.032,14.032,0,0,1-.51075,3.79492,9.433,9.433,0,0,1-1.55175,3.19336,7.67916,7.67916,0,0,1-2.627,2.18945,8.04123,8.04123,0,0,1-3.74023.82081,8.70884,8.70884,0,0,1-3.84961-.894,6.76607,6.76607,0,0,1-2.90137-2.64551Zm0-16.82275a10.42491,10.42491,0,0,0,.4375,3.04736,7.87713,7.87713,0,0,0,1.25977,2.51758,6.16984,6.16984,0,0,0,2.00683,1.71533,5.56067,5.56067,0,0,0,2.68165.63867,6.11569,6.11569,0,0,0,2.9375-.67529,5.77876,5.77876,0,0,0,2.0625-1.84278,7.97947,7.97947,0,0,0,1.167-2.71875,12.33507,12.33507,0,0,0,.292-3.33886,9.30518,9.30518,0,0,0-.49219-3.15625,6.737,6.737,0,0,0-1.36914-2.31739,5.84367,5.84367,0,0,0-2.043-1.4414,6.50483,6.50483,0,0,0-2.55468-.49268,5.88807,5.88807,0,0,0-2.73633.62061,5.7558,5.7558,0,0,0-2.00684,1.69677,7.755,7.755,0,0,0-1.22266,2.5542A11.63032,11.63032,0,0,0,330.4082,21.96729Z" fill="none" stroke="#000"/><path d="M352.55859,31.3457h-2.18945V12.44336h2.18945v3.53955h.07227a6.342,6.342,0,0,1,2.35352-3.15674,7.16845,7.16845,0,0,1,3.81347-.89355V14.3042a6.39955,6.39955,0,0,0-3.06543.584,5.03736,5.03736,0,0,0-1.915,1.67871,6.64676,6.64676,0,0,0-.98535,2.49952,16.10617,16.10617,0,0,0-.27344,3.01074Z" fill="none" stroke="#000"/><path d="M369.92773,31.85645a9.84189,9.84189,0,0,1-3.41211-.65674,7.65,7.65,0,0,1-2.77343-1.86084,8.93908,8.93908,0,0,1-1.87891-3.102,12.39645,12.39645,0,0,1-.69336-4.34229,13.35937,13.35937,0,0,1,.54688-3.88623,9.18854,9.18854,0,0,1,1.64258-3.15674,7.80129,7.80129,0,0,1,2.73632-2.13476,8.80218,8.80218,0,0,1,3.832-.78418,8.89151,8.89151,0,0,1,3.86817.78418,7.89225,7.89225,0,0,1,2.73633,2.1167,8.7281,8.7281,0,0,1,1.624,3.15625,13.96959,13.96959,0,0,1,.5293,3.90478,12.65693,12.65693,0,0,1-.62012,4.08692,9.213,9.213,0,0,1-1.76953,3.13818,7.80165,7.80165,0,0,1-2.77344,2.02539A8.86028,8.86028,0,0,1,369.92773,31.85645Zm6.42286-9.96192a12.91673,12.91673,0,0,0-.36524-3.13818,7.43913,7.43913,0,0,0-1.13086-2.53614,5.44535,5.44535,0,0,0-1.9707-1.69677,6.40016,6.40016,0,0,0-2.95606-.62061,5.98814,5.98814,0,0,0-2.9375.67529,5.75393,5.75393,0,0,0-1.98925,1.78809,7.8628,7.8628,0,0,0-1.13086,2.5542,12.0785,12.0785,0,0,0-.36524,2.97412,11.77273,11.77273,0,0,0,.41992,3.22949,7.56261,7.56261,0,0,0,1.22266,2.53614,5.47756,5.47756,0,0,0,2.00684,1.64209,6.28417,6.28417,0,0,0,2.77343.584,5.98534,5.98534,0,0,0,2.9375-.67529,5.6887,5.6887,0,0,0,1.98926-1.80615,8.09948,8.09948,0,0,0,1.13086-2.55469A11.85846,11.85846,0,0,0,376.35059,21.89453Z" fill="none" stroke="#000"/><path d="M385.47266,12.44336V33.86377a17.92991,17.92991,0,0,1-.10938,2.11621,3.89762,3.89762,0,0,1-.49219,1.55078,2.30206,2.30206,0,0,1-1.13183.94873,5.52636,5.52636,0,0,1-2.06153.31055,6.27642,6.27642,0,0,1-1.42285-.146V36.71a5.9408,5.9408,0,0,0,1.53223.01807,1.60153,1.60153,0,0,0,.91211-.41944,1.77853,1.77853,0,0,0,.457-.876,5.67678,5.67678,0,0,0,.127-1.27686V12.44336Zm.10937-4.12354h-2.4082V5.07227h2.4082Z" fill="none" stroke="#000"/><path d="M392.15039,22.40527a10.26063,10.26063,0,0,0,.40137,2.90137,6.999,6.999,0,0,0,1.18554,2.37158,5.75,5.75,0,0,0,1.98926,1.606,6.1201,6.1201,0,0,0,2.77344.60205,6.03286,6.03286,0,0,0,3.68555-1.13135,5.44944,5.44944,0,0,0,2.043-3.21142h2.44531a11.76151,11.76151,0,0,1-1.0586,2.5,7.69136,7.69136,0,0,1-1.6416,2.00683,7.0931,7.0931,0,0,1-2.33593,1.332,9.46525,9.46525,0,0,1-3.1377.47413,9.16276,9.16276,0,0,1-3.9043-.76612,7.36708,7.36708,0,0,1-2.70117-2.09814,8.84568,8.84568,0,0,1-1.56836-3.13819,14.2227,14.2227,0,0,1-.51074-3.88671,12.38434,12.38434,0,0,1,.60156-3.9043,9.93555,9.93555,0,0,1,1.71485-3.19287,7.97542,7.97542,0,0,1,2.71875-2.15332A8.20528,8.20528,0,0,1,398.5,11.93262a7.53786,7.53786,0,0,1,6.13086,2.68164q2.2251,2.68212,2.18945,7.791Zm12.334-1.8247a8.697,8.697,0,0,0-.38282-2.60889,6.10768,6.10768,0,0,0-1.13183-2.1167,5.39438,5.39438,0,0,0-1.87891-1.42285,6.05525,6.05525,0,0,0-2.59082-.5293,5.76326,5.76326,0,0,0-2.57324.54737,5.91931,5.91931,0,0,0-1.89746,1.46,7.33117,7.33117,0,0,0-1.25879,2.11621,9.78667,9.78667,0,0,0-.62012,2.5542Z" fill="none" stroke="#000"/><path d="M424.48145,18.39111a6.36538,6.36538,0,0,0-2.00684-3.30224,5.45677,5.45677,0,0,0-3.61231-1.186,5.684,5.684,0,0,0-2.88281.69336,5.839,5.839,0,0,0-1.9707,1.84277,8.31215,8.31215,0,0,0-1.13184,2.59083,11.78766,11.78766,0,0,0-.36425,2.90136,12.2689,12.2689,0,0,0,.34668,2.919,7.79109,7.79109,0,0,0,1.1123,2.55469,5.73358,5.73358,0,0,0,1.9707,1.80615,5.87908,5.87908,0,0,0,2.91992.67529,5.5911,5.5911,0,0,0,3.92286-1.35059,6.27843,6.27843,0,0,0,1.8789-3.72168h2.335a11.01288,11.01288,0,0,1-.92968,2.86426,7.57585,7.57585,0,0,1-1.64258,2.22608,7.06017,7.06017,0,0,1-2.38965,1.4414,10.24019,10.24019,0,0,1-7.08008-.25537,7.3554,7.3554,0,0,1-2.70019-2.09814,8.82988,8.82988,0,0,1-1.56934-3.15674,14.41364,14.41364,0,0,1-.51074-3.9043,12.5666,12.5666,0,0,1,.56543-3.77685,9.835,9.835,0,0,1,1.66113-3.19336,8.0388,8.0388,0,0,1,2.71777-2.20752,8.18425,8.18425,0,0,1,3.74121-.8208,8.42611,8.42611,0,0,1,5.3086,1.56884,7.2884,7.2884,0,0,1,2.53711,4.88965Z" fill="none" stroke="#000"/><path d="M438.01953,31.41846q-.40137.07324-1.05762.25586a5.47656,5.47656,0,0,1-1.46.18213,3.47843,3.47843,0,0,1-2.5-.82081,3.99881,3.99881,0,0,1-.85742-2.9375V14.26758h-2.66406V12.44336h2.66406V7.18848H434.334v5.25488h3.54v1.82422h-3.54V27.22217q0,.6936.03711,1.2041a1.99577,1.99577,0,0,0,.21875.83935,1.04157,1.04157,0,0,0,.56543.47461,3.13595,3.13595,0,0,0,1.07618.146,5.58933,5.58933,0,0,0,.89453-.07324q.45556-.07251.89355-.18213Z" fill="none" stroke="#000"/><path d="M442.7998,25.43408a5.55548,5.55548,0,0,0,1.84278,3.44824,6.24127,6.24127,0,0,0,3.81347,1.00391,6.597,6.597,0,0,0,2.08008-.292,4.16777,4.16777,0,0,0,1.44141-.78467,3.38262,3.38262,0,0,0,.85742-1.11279,3.05259,3.05259,0,0,0,.292-1.314,2.41807,2.41807,0,0,0-.89355-2.06152,6.76544,6.76544,0,0,0-2.24414-1.05859,28.9996,28.9996,0,0,0-2.91992-.65674,14.25782,14.25782,0,0,1-2.91895-.8208,5.8403,5.8403,0,0,1-2.24414-1.56934,4.23451,4.23451,0,0,1-.89453-2.88281,4.928,4.928,0,0,1,1.7334-3.88623,7.22824,7.22824,0,0,1,4.9082-1.51416,8.37926,8.37926,0,0,1,4.98145,1.36816,6.25731,6.25731,0,0,1,2.3164,4.57959h-2.22558a4.0965,4.0965,0,0,0-1.66016-3.08349,6.1852,6.1852,0,0,0-3.44824-.894,4.9137,4.9137,0,0,0-3.17481.89405,2.88949,2.88949,0,0,0-1.09472,2.35351,2.298,2.298,0,0,0,.89355,1.95264,7.26484,7.26484,0,0,0,2.24414,1.09472q1.35059.41969,2.91992.748a14.36418,14.36418,0,0,1,2.919.93066A6.407,6.407,0,0,1,454.56836,23.5a4.18321,4.18321,0,0,1,.89453,2.84619,4.806,4.806,0,0,1-.584,2.39063,5.08624,5.08624,0,0,1-1.60547,1.73291,7.4764,7.4764,0,0,1-2.42676,1.04,12.881,12.881,0,0,1-3.084.34668,8.32281,8.32281,0,0,1-2.97364-.49268,6.43812,6.43812,0,0,1-2.208-1.36816,6.29287,6.29287,0,0,1-1.42285-2.04346,7.195,7.195,0,0,1-.584-2.51807Z" fill="none" stroke="#000"/></svg>