<?xml version="1.0" encoding="utf-8"?>
<!-- Generator: Adobe Illustrator 24.1.2, SVG Export Plug-In . SVG Version: 6.00 Build 0)  -->
<svg version="1.1" id="Layer_1" xmlns="http://www.w3.org/2000/svg" xmlns:xlink="http://www.w3.org/1999/xlink" x="0px" y="0px"
	 viewBox="0 0 811.21 66.12" style="enable-background:new 0 0 811.21 66.12;" xml:space="preserve">
<style type="text/css">
	.st0{fill:none;stroke:#231F20;stroke-width:2;stroke-linecap:round;stroke-linejoin:round;}
	.st1{font-family:'Helvetica';}
	.st2{font-size:66.5222px;}
	.st3{letter-spacing:1;}
</style>
<g>
	<g>
		<path class="st0" d="M1.33,15.25h5.72v4.61c1.17-1.58,2.45-2.8,3.84-3.67c1.98-1.3,4.3-1.95,6.97-1.95
			c3.95,0,7.31,1.51,10.06,4.53c2.76,3.02,4.14,7.34,4.14,12.94c0,7.58-1.99,12.99-5.97,16.24c-2.52,2.06-5.46,3.09-8.8,3.09
			c-2.63,0-4.84-0.57-6.62-1.72c-1.04-0.65-2.21-1.76-3.49-3.35v17.77H1.33V15.25z M23.32,42.52c1.81-2.28,2.72-5.7,2.72-10.25
			c0-2.77-0.4-5.15-1.21-7.15c-1.52-3.83-4.3-5.75-8.34-5.75c-4.06,0-6.84,2.02-8.34,6.07c-0.8,2.17-1.21,4.92-1.21,8.25
			c0,2.69,0.4,4.97,1.21,6.85c1.52,3.6,4.3,5.39,8.34,5.39C19.23,45.95,21.51,44.81,23.32,42.52z"/>
		<path class="st0" d="M40.67,2h5.85v17.8c1.39-1.75,2.63-2.99,3.74-3.7c1.88-1.23,4.23-1.85,7.05-1.85c5.05,0,8.47,1.77,10.26,5.29
			c0.97,1.93,1.46,4.6,1.46,8.02v22.31h-6.01V27.95c0-2.56-0.32-4.43-0.97-5.62c-1.06-1.9-3.05-2.86-5.98-2.86
			c-2.43,0-4.62,0.83-6.59,2.5c-1.97,1.67-2.96,4.82-2.96,9.45v18.45h-5.85V2z"/>
		<path class="st0" d="M79.53,2.16h5.94v6.63h-5.94V2.16z M79.53,15.25h5.94v34.62h-5.94V15.25z"/>
		<path class="st0" d="M96.34,2.16h5.85v47.72h-5.85V2.16z"/>
		<path class="st0" d="M131.46,28.83c1.34-0.17,2.24-0.73,2.7-1.69c0.26-0.52,0.39-1.27,0.39-2.25c0-2-0.71-3.45-2.12-4.35
			c-1.42-0.9-3.44-1.35-6.08-1.35c-3.05,0-5.21,0.83-6.48,2.48c-0.71,0.91-1.18,2.27-1.39,4.08h-5.46c0.11-4.3,1.5-7.29,4.17-8.97
			c2.67-1.68,5.77-2.52,9.29-2.52c4.09,0,7.41,0.78,9.96,2.34c2.53,1.56,3.8,3.98,3.8,7.28V43.9c0,0.61,0.12,1.09,0.37,1.46
			c0.25,0.37,0.77,0.55,1.58,0.55c0.26,0,0.55-0.02,0.88-0.05c0.33-0.03,0.67-0.08,1.04-0.15v4.32c-0.91,0.26-1.6,0.42-2.08,0.49
			s-1.13,0.1-1.95,0.1c-2.01,0-3.48-0.71-4.39-2.14c-0.48-0.76-0.81-1.83-1.01-3.21c-1.19,1.56-2.9,2.91-5.13,4.06
			c-2.23,1.15-4.69,1.72-7.37,1.72c-3.23,0-5.86-0.98-7.91-2.94c-2.05-1.96-3.07-4.41-3.07-7.35c0-3.22,1.01-5.72,3.02-7.49
			c2.01-1.77,4.66-2.87,7.93-3.28L131.46,28.83z M119.15,44.62c1.23,0.97,2.7,1.46,4.39,1.46c2.06,0,4.05-0.48,5.98-1.43
			c3.25-1.58,4.87-4.16,4.87-7.75v-4.7c-0.71,0.46-1.63,0.84-2.76,1.14c-1.12,0.3-2.23,0.52-3.31,0.65l-3.53,0.45
			c-2.12,0.28-3.71,0.72-4.78,1.33c-1.81,1.02-2.71,2.64-2.71,4.86C117.3,42.32,117.92,43.65,119.15,44.62z"/>
		<path class="st0" d="M170.79,16.16c1.04,0.65,2.21,1.79,3.53,3.41V2h5.62v47.88h-5.26v-4.84c-1.36,2.14-2.97,3.69-4.82,4.64
			c-1.86,0.95-3.98,1.43-6.37,1.43c-3.86,0-7.21-1.63-10.03-4.89c-2.83-3.26-4.24-7.59-4.24-13.01c0-5.07,1.29-9.46,3.87-13.17
			c2.58-3.71,6.26-5.57,11.05-5.57C166.78,14.47,169,15.04,170.79,16.16z M157.74,42.25c1.57,2.51,4.09,3.77,7.56,3.77
			c2.69,0,4.91-1.16,6.64-3.49c1.73-2.33,2.6-5.67,2.6-10.02c0-4.4-0.89-7.65-2.68-9.76c-1.79-2.11-4-3.17-6.63-3.17
			c-2.93,0-5.31,1.13-7.13,3.38c-1.82,2.25-2.73,5.56-2.73,9.94C155.38,36.62,156.16,39.73,157.74,42.25z"/>
		<path class="st0" d="M212.02,16.05c2.3,1.16,4.06,2.66,5.26,4.5c1.16,1.75,1.94,3.8,2.32,6.14c0.34,1.6,0.52,4.16,0.52,7.67h-25.3
			c0.11,3.54,0.93,6.38,2.48,8.52c1.55,2.14,3.94,3.21,7.19,3.21c3.03,0,5.45-1.01,7.25-3.03c1.01-1.17,1.73-2.53,2.15-4.08h5.75
			c-0.15,1.28-0.65,2.7-1.51,4.27c-0.86,1.57-1.81,2.85-2.86,3.85c-1.76,1.73-3.94,2.9-6.54,3.51c-1.4,0.35-2.98,0.52-4.74,0.52
			c-4.3,0-7.95-1.58-10.94-4.73c-2.99-3.15-4.49-7.56-4.49-13.24c0-5.59,1.51-10.12,4.52-13.61c3.01-3.49,6.95-5.23,11.82-5.23
			C207.34,14.31,209.72,14.89,212.02,16.05z M214.12,29.71c-0.24-2.53-0.78-4.56-1.64-6.07c-1.59-2.81-4.24-4.22-7.96-4.22
			c-2.66,0-4.9,0.97-6.7,2.91c-1.8,1.94-2.76,4.4-2.87,7.39H214.12z"/>
		<path class="st0" d="M229.56,2.16h5.85v47.72h-5.85V2.16z"/>
		<path class="st0" d="M245.55,15.25h5.72v4.61c1.17-1.58,2.45-2.8,3.84-3.67c1.98-1.3,4.3-1.95,6.97-1.95
			c3.95,0,7.31,1.51,10.06,4.53c2.76,3.02,4.14,7.34,4.14,12.94c0,7.58-1.99,12.99-5.97,16.24c-2.52,2.06-5.46,3.09-8.8,3.09
			c-2.63,0-4.84-0.57-6.62-1.72c-1.04-0.65-2.21-1.76-3.49-3.35v17.77h-5.85V15.25z M267.54,42.52c1.81-2.28,2.72-5.7,2.72-10.25
			c0-2.77-0.4-5.15-1.21-7.15c-1.52-3.83-4.3-5.75-8.34-5.75c-4.06,0-6.84,2.02-8.34,6.07c-0.8,2.17-1.21,4.92-1.21,8.25
			c0,2.69,0.4,4.97,1.21,6.85c1.52,3.6,4.3,5.39,8.34,5.39C263.45,45.95,265.73,44.81,267.54,42.52z"/>
		<path class="st0" d="M284.89,2h5.85v17.8c1.39-1.75,2.63-2.99,3.74-3.7c1.88-1.23,4.23-1.85,7.05-1.85
			c5.04,0,8.47,1.77,10.26,5.29c0.97,1.93,1.46,4.6,1.46,8.02v22.31h-6.01V27.95c0-2.56-0.33-4.43-0.97-5.62
			c-1.06-1.9-3.05-2.86-5.98-2.86c-2.43,0-4.62,0.83-6.59,2.5c-1.97,1.67-2.96,4.82-2.96,9.45v18.45h-5.85V2z"/>
		<path class="st0" d="M323.75,2.16h5.94v6.63h-5.94V2.16z M323.75,15.25h5.94v34.62h-5.94V15.25z"/>
		<path class="st0" d="M359.04,28.83c1.34-0.17,2.24-0.73,2.7-1.69c0.26-0.52,0.39-1.27,0.39-2.25c0-2-0.71-3.45-2.12-4.35
			c-1.42-0.9-3.44-1.35-6.08-1.35c-3.05,0-5.21,0.83-6.48,2.48c-0.71,0.91-1.18,2.27-1.39,4.08h-5.46c0.11-4.3,1.5-7.29,4.17-8.97
			c2.67-1.68,5.77-2.52,9.3-2.52c4.09,0,7.41,0.78,9.96,2.34c2.53,1.56,3.8,3.98,3.8,7.28V43.9c0,0.61,0.12,1.09,0.37,1.46
			s0.77,0.55,1.58,0.55c0.26,0,0.55-0.02,0.88-0.05c0.33-0.03,0.67-0.08,1.04-0.15v4.32c-0.91,0.26-1.6,0.42-2.08,0.49
			s-1.13,0.1-1.95,0.1c-2.01,0-3.48-0.71-4.39-2.14c-0.48-0.76-0.81-1.83-1.01-3.21c-1.19,1.56-2.9,2.91-5.13,4.06
			c-2.23,1.15-4.69,1.72-7.37,1.72c-3.23,0-5.86-0.98-7.91-2.94c-2.05-1.96-3.07-4.41-3.07-7.35c0-3.22,1.01-5.72,3.02-7.49
			c2.01-1.77,4.66-2.87,7.93-3.28L359.04,28.83z M346.73,44.62c1.23,0.97,2.7,1.46,4.39,1.46c2.06,0,4.05-0.48,5.98-1.43
			c3.25-1.58,4.87-4.16,4.87-7.75v-4.7c-0.71,0.46-1.63,0.84-2.76,1.14c-1.12,0.3-2.23,0.52-3.31,0.65l-3.53,0.45
			c-2.12,0.28-3.71,0.72-4.78,1.33c-1.81,1.02-2.71,2.64-2.71,4.86C344.88,42.32,345.49,43.65,346.73,44.62z"/>
	</g>
</g>
<text transform="matrix(1 0 0 1 379.7224 50.1139)" class="st1 st2 st3">dance</text>
<g>
	<g>
		<path class="st0" d="M569.44,15.09h5.72v4.61c1.17-1.58,2.45-2.8,3.84-3.67c1.98-1.3,4.3-1.95,6.97-1.95
			c3.95,0,7.31,1.51,10.06,4.53c2.76,3.02,4.14,7.34,4.14,12.94c0,7.58-1.99,12.99-5.97,16.24c-2.52,2.06-5.46,3.09-8.8,3.09
			c-2.63,0-4.84-0.57-6.62-1.72c-1.04-0.65-2.21-1.76-3.49-3.35v17.77h-5.85V15.09z M591.43,42.36c1.81-2.28,2.72-5.7,2.72-10.25
			c0-2.77-0.4-5.15-1.21-7.15c-1.52-3.83-4.3-5.75-8.34-5.75c-4.06,0-6.84,2.02-8.34,6.07c-0.8,2.17-1.21,4.92-1.21,8.25
			c0,2.69,0.4,4.97,1.21,6.85c1.52,3.6,4.3,5.39,8.34,5.39C587.34,45.79,589.62,44.65,591.43,42.36z"/>
		<path class="st0" d="M608.94,14.93h5.55v6.01c0.45-1.17,1.57-2.59,3.35-4.27c1.78-1.68,3.82-2.52,6.14-2.52
			c0.11,0,0.29,0.01,0.55,0.03c0.26,0.02,0.7,0.06,1.33,0.13v6.17c-0.35-0.07-0.67-0.11-0.96-0.13c-0.29-0.02-0.61-0.03-0.96-0.03
			c-2.95,0-5.21,0.95-6.79,2.84c-1.58,1.89-2.37,4.08-2.37,6.54v20.01h-5.85V14.93z"/>
		<path class="st0" d="M658,18.4c3.07,2.99,4.61,7.38,4.61,13.18c0,5.6-1.36,10.23-4.06,13.89c-2.71,3.66-6.91,5.48-12.61,5.48
			c-4.75,0-8.53-1.62-11.32-4.85c-2.8-3.23-4.19-7.58-4.19-13.03c0-5.84,1.47-10.49,4.42-13.96c2.95-3.46,6.9-5.19,11.87-5.19
			C651.16,13.92,654.93,15.42,658,18.4z M654.37,41.52c1.42-2.93,2.14-6.19,2.14-9.78c0-3.24-0.51-5.88-1.54-7.92
			c-1.63-3.2-4.43-4.8-8.41-4.8c-3.53,0-6.1,1.36-7.71,4.09c-1.61,2.73-2.41,6.01-2.41,9.86c0,3.7,0.8,6.78,2.41,9.25
			c1.61,2.47,4.15,3.7,7.64,3.7C650.32,45.92,652.95,44.45,654.37,41.52z"/>
		<path class="st0" d="M666.13,58.52c2.62-0.09,4.19-0.32,4.73-0.7c0.53-0.38,0.8-1.56,0.8-3.56V15.09h5.85v39.79
			c0,2.53-0.41,4.43-1.23,5.68c-1.36,2.12-3.95,3.18-7.76,3.18c-0.28,0-0.58-0.01-0.89-0.03c-0.31-0.02-0.81-0.07-1.48-0.13V58.52z
			 M677.5,8.76h-5.85V2h5.85V8.76z"/>
		<path class="st0" d="M709.78,15.89c2.3,1.16,4.06,2.66,5.26,4.5c1.16,1.75,1.94,3.8,2.32,6.14c0.34,1.6,0.52,4.16,0.52,7.67h-25.3
			c0.11,3.54,0.93,6.38,2.48,8.52c1.55,2.14,3.94,3.21,7.19,3.21c3.03,0,5.45-1.01,7.25-3.03c1.01-1.17,1.72-2.53,2.15-4.08h5.75
			c-0.15,1.28-0.65,2.7-1.51,4.27c-0.85,1.57-1.81,2.85-2.86,3.85c-1.76,1.73-3.94,2.9-6.54,3.51c-1.4,0.35-2.98,0.52-4.74,0.52
			c-4.3,0-7.95-1.58-10.94-4.73c-2.99-3.15-4.49-7.56-4.49-13.24c0-5.59,1.51-10.12,4.52-13.61c3.01-3.49,6.95-5.23,11.82-5.23
			C705.1,14.15,707.48,14.73,709.78,15.89z M711.88,29.55c-0.24-2.53-0.78-4.56-1.64-6.07c-1.59-2.81-4.24-4.22-7.96-4.22
			c-2.66,0-4.9,0.97-6.7,2.91c-1.8,1.94-2.76,4.4-2.87,7.39H711.88z"/>
		<path class="st0" d="M750.14,16.78c2.46,1.91,3.94,5.19,4.43,9.84h-5.68c-0.35-2.14-1.14-3.92-2.37-5.34
			c-1.23-1.42-3.22-2.13-5.94-2.13c-3.72,0-6.39,1.82-7.99,5.45c-1.04,2.36-1.56,5.27-1.56,8.73c0,3.48,0.74,6.41,2.21,8.79
			c1.47,2.38,3.79,3.57,6.95,3.57c2.42,0,4.35-0.74,5.77-2.22c1.42-1.48,2.4-3.5,2.94-6.07h5.68c-0.65,4.61-2.27,7.99-4.87,10.12
			c-2.6,2.13-5.92,3.2-9.97,3.2c-4.55,0-8.17-1.66-10.88-4.99c-2.71-3.32-4.06-7.48-4.06-12.46c0-6.11,1.48-10.86,4.45-14.26
			c2.97-3.4,6.75-5.1,11.34-5.1C744.49,13.92,747.68,14.88,750.14,16.78z"/>
		<path class="st0" d="M763.45,5.22h5.91v9.71h5.55v4.77h-5.55v22.7c0,1.21,0.41,2.02,1.23,2.44c0.46,0.24,1.21,0.36,2.27,0.36
			c0.28,0,0.58-0.01,0.91-0.02c0.32-0.01,0.7-0.05,1.14-0.11v4.64c-0.67,0.19-1.37,0.34-2.1,0.42c-0.73,0.09-1.51,0.13-2.35,0.13
			c-2.73,0-4.58-0.7-5.55-2.1c-0.97-1.4-1.46-3.21-1.46-5.44V19.7h-4.71v-4.77h4.71V5.22z"/>
		<path class="st0" d="M786.1,38.8c0.18,1.95,0.67,3.44,1.49,4.48c1.5,1.88,4.11,2.83,7.82,2.83c2.21,0,4.15-0.47,5.83-1.41
			c1.68-0.94,2.52-2.4,2.52-4.37c0-1.49-0.67-2.63-2.01-3.41c-0.86-0.48-2.55-1.03-5.08-1.66l-4.72-1.17
			c-3.02-0.74-5.24-1.56-6.67-2.47c-2.55-1.58-3.83-3.77-3.83-6.56c0-3.29,1.2-5.96,3.6-7.99c2.4-2.04,5.63-3.05,9.69-3.05
			c5.31,0,9.14,1.54,11.49,4.61c1.47,1.95,2.18,4.05,2.14,6.3h-5.52c-0.11-1.31-0.59-2.51-1.43-3.59c-1.37-1.53-3.76-2.29-7.15-2.29
			c-2.26,0-3.97,0.42-5.14,1.26c-1.16,0.84-1.74,1.95-1.74,3.33c0,1.51,0.76,2.72,2.29,3.62c0.88,0.54,2.18,1.02,3.9,1.43l3.94,0.94
			c4.28,1.02,7.15,2,8.6,2.96c2.27,1.49,3.41,3.84,3.41,7.05c0,3.1-1.19,5.77-3.57,8.02c-2.38,2.25-6,3.38-10.87,3.38
			c-5.24,0-8.95-1.18-11.13-3.52c-2.18-2.35-3.35-5.26-3.5-8.72H786.1z"/>
	</g>
</g>
</svg>
