<?xml version="1.0" encoding="utf-8"?>
<!-- Generator: Adobe Illustrator 23.0.6, SVG Export Plug-In . SVG Version: 6.00 Build 0)  -->
<svg version="1.1" id="f4081daf-2c43-4e44-8e47-30487845dad8"
	 xmlns="http://www.w3.org/2000/svg" xmlns:xlink="http://www.w3.org/1999/xlink" x="0px" y="0px" viewBox="0 0 438.4 43"
	 style="enable-background:new 0 0 438.4 43;" xml:space="preserve">
<style type="text/css">
	.st0{fill:#FFFFFF;}
	.st1{fill:none;stroke:#000000;}
</style>
<title>logo</title>
<path d="M5.9,38.8H3.7V12.4h2.2v3.3H6c0.3-0.6,0.7-1.2,1.2-1.6c0.5-0.5,1-0.9,1.6-1.2c0.6-0.3,1.2-0.6,1.8-0.7
	c0.6-0.2,1.2-0.3,1.9-0.3c1.3,0,2.7,0.2,3.9,0.8c1,0.5,1.9,1.2,2.6,2.1c0.7,0.9,1.2,2,1.5,3.2c0.3,1.3,0.5,2.6,0.5,3.9
	c0,1.3-0.2,2.6-0.5,3.8c-0.3,1.2-0.8,2.2-1.6,3.2c-0.7,0.9-1.6,1.7-2.6,2.2c-1.2,0.6-2.4,0.9-3.7,0.8c-1.3,0-2.7-0.3-3.9-0.9
	c-1.2-0.6-2.2-1.5-2.9-2.6L5.9,38.8z M5.9,22c0,1,0.1,2.1,0.4,3c0.3,0.9,0.7,1.8,1.3,2.5c0.5,0.7,1.2,1.3,2,1.7
	c0.8,0.4,1.7,0.7,2.7,0.6c1,0,2-0.2,2.9-0.7c0.8-0.4,1.5-1.1,2.1-1.8c0.6-0.8,1-1.7,1.2-2.7c0.2-1.1,0.3-2.2,0.3-3.3
	c0-1.1-0.1-2.1-0.5-3.2c-0.3-0.9-0.8-1.6-1.4-2.3c-0.6-0.6-1.3-1.1-2-1.4c-0.8-0.3-1.7-0.5-2.6-0.5c-0.9,0-1.9,0.2-2.7,0.6
	c-0.8,0.4-1.5,1-2,1.7c-0.6,0.8-1,1.6-1.2,2.6C6.1,19.8,5.9,20.9,5.9,22L5.9,22z"/>
<path d="M25.8,31.3V5.1H28v10c0.8-0.9,1.7-1.6,2.7-2.3c1-0.6,2.2-0.9,3.4-0.9c1.1,0,2.2,0.2,3.2,0.6c1,0.4,1.9,1.2,2.5,2.1
	c0.4,0.6,0.7,1.3,0.8,2.1c0.1,0.7,0.1,1.5,0.1,2.2v12.4h-2.2V19c0.1-1.4-0.3-2.7-1.1-3.8c-1-0.9-2.4-1.4-3.8-1.3
	c-0.6,0-1.3,0.1-1.9,0.3c-0.5,0.2-1.1,0.5-1.5,0.8c-0.4,0.3-0.8,0.7-1.1,1.2c-0.3,0.4-0.6,0.9-0.7,1.4c-0.2,0.6-0.3,1.2-0.4,1.8
	c0,0.6-0.1,1.2-0.1,1.8v10.2H25.8z"/>
<path d="M46.3,8.3V5.1h2.4v3.2H46.3z M46.4,31.3V12.4h2.2v18.9H46.4z"/>
<path d="M54.5,31.3V5.1h2.2v26.3H54.5z"/>
<path d="M71,20.3c0.4,0,0.9-0.1,1.5-0.2c0.5-0.1,1-0.2,1.4-0.4c0.4-0.2,0.6-0.5,0.7-0.9c0.1-0.4,0.1-0.7,0.1-1.1c0-1-0.4-2-1.1-2.8
	c-1-0.8-2.3-1.2-3.6-1.1c-0.7,0-1.4,0.1-2.1,0.2c-0.6,0.1-1.2,0.4-1.7,0.7c-0.5,0.3-0.9,0.8-1.2,1.3c-0.3,0.6-0.5,1.3-0.6,2.1h-2.2
	c0-1,0.3-2,0.8-2.9c0.4-0.8,1-1.4,1.7-1.9c0.7-0.5,1.5-0.9,2.4-1.1C68,12,69,11.9,70,11.9c0.9,0,1.8,0.1,2.7,0.3
	c0.8,0.2,1.5,0.5,2.2,1c0.6,0.5,1.1,1.1,1.5,1.8c0.4,0.9,0.6,1.8,0.5,2.8v10.3c0,0.9,0.2,1.4,0.5,1.6c0.3,0.2,0.9,0.2,1.8-0.2v1.7
	c-0.2,0-0.4,0.1-0.7,0.2c-0.3,0.1-0.6,0.1-1,0.1c-0.3,0-0.7,0-1-0.1c-0.3,0-0.6-0.2-0.9-0.3c-0.2-0.2-0.4-0.4-0.5-0.7
	c-0.1-0.3-0.2-0.5-0.3-0.8c-0.1-0.3-0.1-0.6-0.1-1c-0.9,1-2,1.8-3.2,2.3c-1.2,0.5-2.5,0.8-3.9,0.8c-0.8,0-1.6-0.1-2.4-0.3
	c-0.7-0.2-1.4-0.6-2-1c-0.6-0.5-1.1-1-1.4-1.7c-0.4-0.7-0.5-1.6-0.5-2.4c0-3.2,2.2-5.1,6.6-5.7L71,20.3z M74.6,21.4
	c-0.9,0.4-1.8,0.6-2.8,0.8c-0.9,0.1-1.9,0.2-2.8,0.3c-1.4,0-2.7,0.4-3.9,1.1c-0.9,0.6-1.5,1.7-1.4,2.9c0,0.5,0.1,1,0.3,1.5
	c0.2,0.4,0.5,0.8,0.9,1.1c0.4,0.3,0.8,0.5,1.3,0.6c0.5,0.1,1,0.2,1.5,0.2c0.9,0,1.7-0.1,2.6-0.3c0.8-0.2,1.5-0.5,2.2-1
	c0.6-0.4,1.2-1,1.6-1.7c0.4-0.8,0.6-1.6,0.6-2.5L74.6,21.4z"/>
<path d="M97.2,5.1h2.2v26.3h-2.2V28h-0.1c-0.3,0.6-0.7,1.2-1.2,1.7c-0.5,0.5-1,0.9-1.6,1.2c-0.6,0.3-1.2,0.6-1.8,0.7
	c-0.6,0.2-1.2,0.3-1.9,0.3c-1.3,0-2.7-0.2-3.9-0.8c-1-0.5-1.9-1.2-2.6-2.1c-0.7-0.9-1.2-2-1.5-3.2c-0.3-1.3-0.5-2.6-0.5-3.9
	c0-1.3,0.2-2.6,0.5-3.8c0.3-1.2,0.8-2.2,1.6-3.2c0.7-0.9,1.6-1.7,2.6-2.2c1.2-0.6,2.4-0.9,3.7-0.8c1.3,0,2.7,0.3,3.8,0.9
	c1.2,0.6,2.2,1.5,2.9,2.6L97.2,5.1z M97.2,21.8c0-1-0.1-2.1-0.4-3c-0.3-0.9-0.7-1.8-1.3-2.5c-0.5-0.7-1.2-1.3-2-1.7
	c-0.8-0.4-1.7-0.7-2.7-0.6c-1,0-2,0.2-3,0.7c-0.8,0.4-1.5,1.1-2,1.8c-0.6,0.8-1,1.7-1.2,2.7c-0.2,1.1-0.3,2.2-0.3,3.3
	c0,1.1,0.1,2.1,0.5,3.2c0.3,0.9,0.8,1.6,1.4,2.3c0.6,0.6,1.3,1.1,2,1.4c0.8,0.3,1.7,0.5,2.6,0.5c0.9,0,1.9-0.2,2.7-0.6
	c0.8-0.4,1.5-1,2-1.7c0.6-0.8,1-1.6,1.2-2.6C97,24,97.2,22.9,97.2,21.8L97.2,21.8z"/>
<path d="M106.2,22.4c0,1,0.1,2,0.4,2.9c0.2,0.9,0.6,1.7,1.2,2.4c0.5,0.7,1.2,1.2,2,1.6c0.9,0.4,1.8,0.6,2.8,0.6
	c1.3,0,2.6-0.4,3.7-1.1c1-0.8,1.8-1.9,2-3.2h2.4c-0.3,0.9-0.6,1.7-1.1,2.5c-0.4,0.8-1,1.4-1.6,2c-0.7,0.6-1.5,1-2.3,1.3
	c-1,0.3-2.1,0.5-3.1,0.5c-1.3,0-2.7-0.2-3.9-0.8c-1.1-0.5-2-1.2-2.7-2.1c-0.7-0.9-1.3-2-1.6-3.1c-0.3-1.3-0.5-2.6-0.5-3.9
	c0-1.3,0.2-2.6,0.6-3.9c0.4-1.2,1-2.2,1.7-3.2c0.7-0.9,1.7-1.6,2.7-2.2c1.1-0.5,2.4-0.8,3.6-0.8c2.3-0.1,4.6,0.9,6.1,2.7
	c1.5,1.8,2.2,4.4,2.2,7.8L106.2,22.4z M118.5,20.6c0-0.9-0.1-1.8-0.4-2.6c-0.2-0.8-0.6-1.5-1.1-2.1c-0.5-0.6-1.2-1.1-1.9-1.4
	c-0.8-0.4-1.7-0.5-2.6-0.5c-0.9,0-1.8,0.2-2.6,0.5c-0.7,0.4-1.4,0.8-1.9,1.5c-0.5,0.6-1,1.3-1.3,2.1c-0.3,0.8-0.5,1.7-0.6,2.6
	L118.5,20.6z"/>
<path d="M125.5,31.3V5.1h2.2v26.3H125.5z"/>
<path d="M135.7,38.8h-2.2V12.4h2.2v3.3h0.1c0.3-0.6,0.7-1.2,1.2-1.6c0.5-0.5,1-0.9,1.6-1.2c0.6-0.3,1.2-0.6,1.8-0.7
	c0.6-0.2,1.2-0.3,1.9-0.3c1.3,0,2.7,0.2,3.9,0.8c1,0.5,1.9,1.2,2.6,2.1c0.7,0.9,1.2,2,1.5,3.2c0.3,1.3,0.5,2.6,0.5,3.9
	c0,1.3-0.2,2.6-0.5,3.8c-0.3,1.2-0.8,2.2-1.6,3.2c-0.7,0.9-1.6,1.7-2.6,2.2c-1.2,0.6-2.4,0.9-3.7,0.8c-1.3,0-2.7-0.3-3.9-0.9
	c-1.2-0.6-2.2-1.5-2.9-2.6V38.8z M135.7,22c0,1,0.1,2.1,0.4,3c0.3,0.9,0.7,1.8,1.3,2.5c0.5,0.7,1.2,1.3,2,1.7
	c0.8,0.4,1.7,0.7,2.7,0.6c1,0,2-0.2,2.9-0.7c0.8-0.4,1.5-1.1,2.1-1.8c0.6-0.8,1-1.7,1.2-2.7c0.2-1.1,0.3-2.2,0.3-3.3
	c0-1.1-0.1-2.1-0.5-3.2c-0.3-0.9-0.8-1.6-1.4-2.3c-0.6-0.6-1.3-1.1-2-1.4c-0.8-0.3-1.7-0.5-2.6-0.5c-0.9,0-1.9,0.2-2.7,0.6
	c-0.8,0.4-1.5,1-2,1.7c-0.6,0.8-1,1.6-1.2,2.6C135.8,19.8,135.7,20.9,135.7,22L135.7,22z"/>
<path d="M155.5,31.3V5.1h2.2v10c0.8-0.9,1.7-1.6,2.7-2.3c1-0.6,2.2-0.9,3.4-0.9c1.1,0,2.2,0.2,3.2,0.6c1,0.4,1.9,1.2,2.5,2.1
	c0.4,0.6,0.7,1.3,0.8,2.1c0.1,0.7,0.1,1.5,0.1,2.2v12.4h-2.2V19c0.1-1.4-0.3-2.7-1.1-3.8c-1-0.9-2.4-1.4-3.8-1.3
	c-0.6,0-1.3,0.1-1.9,0.3c-0.5,0.2-1.1,0.5-1.5,0.8c-0.4,0.3-0.8,0.7-1.1,1.2c-0.3,0.4-0.6,0.9-0.7,1.4c-0.2,0.6-0.3,1.2-0.4,1.8
	c0,0.6-0.1,1.2-0.1,1.8v10.2H155.5z"/>
<path d="M176.1,8.3V5.1h2.4v3.2H176.1z M176.2,31.3V12.4h2.2v18.9L176.2,31.3z"/>
<path d="M192.6,20.3c0.4,0,0.9-0.1,1.5-0.2c0.5-0.1,1-0.2,1.4-0.4c0.4-0.2,0.6-0.5,0.7-0.9c0.1-0.4,0.1-0.7,0.1-1.1
	c0-1-0.4-2-1.1-2.8c-1-0.8-2.3-1.2-3.6-1.1c-0.7,0-1.4,0.1-2.1,0.2c-0.6,0.1-1.2,0.4-1.7,0.7c-0.5,0.3-0.9,0.8-1.2,1.3
	c-0.3,0.6-0.5,1.3-0.6,2.1h-2.2c0-1,0.3-2,0.8-2.9c0.4-0.8,1-1.4,1.7-1.9c0.7-0.5,1.5-0.9,2.4-1.1c0.9-0.2,1.9-0.4,2.9-0.3
	c0.9,0,1.8,0.1,2.7,0.3c0.8,0.2,1.5,0.5,2.2,1c0.6,0.5,1.1,1.1,1.5,1.8c0.4,0.9,0.6,1.8,0.5,2.8v10.3c0,0.9,0.2,1.4,0.5,1.6
	c0.3,0.2,0.9,0.2,1.8-0.2v1.7c-0.2,0-0.4,0.1-0.7,0.2c-0.3,0.1-0.6,0.1-1,0.1c-0.3,0-0.7,0-1-0.1c-0.3,0-0.6-0.2-0.9-0.3
	c-0.2-0.2-0.4-0.4-0.5-0.7c-0.1-0.3-0.2-0.5-0.3-0.8c-0.1-0.3-0.1-0.6-0.1-1c-0.9,1-2,1.8-3.2,2.3c-1.2,0.5-2.5,0.8-3.9,0.8
	c-0.8,0-1.6-0.1-2.4-0.3c-0.7-0.2-1.4-0.6-2-1c-0.6-0.5-1.1-1-1.4-1.7c-0.4-0.7-0.5-1.6-0.5-2.4c0-3.2,2.2-5.1,6.6-5.7L192.6,20.3z
	 M196.3,21.4c-0.9,0.4-1.8,0.6-2.8,0.8c-0.9,0.1-1.9,0.2-2.8,0.3c-1.4,0-2.7,0.4-3.9,1.1c-0.9,0.6-1.5,1.7-1.4,2.9
	c0,0.5,0.1,1,0.3,1.5c0.2,0.4,0.5,0.8,0.9,1.1c0.4,0.3,0.8,0.5,1.3,0.6c0.5,0.1,1,0.2,1.5,0.2c0.9,0,1.7-0.1,2.6-0.3
	c0.8-0.2,1.5-0.5,2.2-1c0.6-0.4,1.2-1,1.6-1.7c0.4-0.8,0.6-1.6,0.6-2.5L196.3,21.4z"/>
<path class="st0" d="M219,5.1h2.2v26.3H219V28h-0.1c-0.3,0.6-0.7,1.2-1.2,1.7c-0.5,0.5-1,0.9-1.6,1.2c-0.6,0.3-1.2,0.6-1.8,0.7
	c-0.6,0.2-1.2,0.3-1.9,0.3c-1.3,0-2.7-0.2-3.9-0.8c-1-0.5-1.9-1.2-2.6-2.1c-0.7-0.9-1.2-2-1.5-3.2c-0.3-1.3-0.5-2.6-0.5-3.9
	c0-1.3,0.2-2.6,0.5-3.8c0.3-1.2,0.8-2.2,1.6-3.2c0.7-0.9,1.6-1.7,2.6-2.2c1.2-0.6,2.4-0.9,3.7-0.8c1.3,0,2.7,0.3,3.8,0.9
	c1.2,0.6,2.2,1.5,2.9,2.6L219,5.1z M219,21.8c0-1-0.1-2.1-0.4-3c-0.3-0.9-0.7-1.8-1.3-2.5c-0.5-0.7-1.2-1.3-2-1.7
	c-0.8-0.4-1.7-0.7-2.7-0.6c-1,0-2,0.2-3,0.7c-0.8,0.4-1.5,1.1-2,1.8c-0.6,0.8-1,1.7-1.2,2.7c-0.2,1.1-0.3,2.2-0.3,3.3
	c0,1.1,0.1,2.1,0.5,3.2c0.3,0.9,0.8,1.6,1.4,2.3c0.6,0.6,1.3,1.1,2,1.4c0.8,0.3,1.7,0.5,2.6,0.5c0.9,0,1.9-0.2,2.7-0.6
	c0.8-0.4,1.5-1,2-1.7c0.6-0.8,1-1.6,1.2-2.6C218.8,24,219,22.9,219,21.8L219,21.8z"/>
<path class="st0" d="M235.3,20.3c0.4,0,0.9-0.1,1.5-0.2c0.5-0.1,1-0.2,1.4-0.4c0.4-0.2,0.6-0.5,0.7-0.9c0.1-0.4,0.1-0.7,0.1-1.1
	c0-1-0.4-2-1.1-2.8c-1-0.8-2.3-1.2-3.6-1.1c-0.7,0-1.4,0.1-2.1,0.2c-0.6,0.1-1.2,0.4-1.7,0.7c-0.5,0.3-0.9,0.8-1.2,1.3
	c-0.3,0.6-0.5,1.3-0.6,2.1h-2.2c0-1,0.3-2,0.8-2.9c0.4-0.8,1-1.4,1.7-1.9c0.7-0.5,1.5-0.9,2.4-1.1c0.9-0.2,1.9-0.4,2.9-0.3
	c0.9,0,1.8,0.1,2.7,0.3c0.8,0.2,1.5,0.5,2.2,1c0.6,0.5,1.1,1.1,1.5,1.8c0.4,0.9,0.6,1.8,0.5,2.8v10.3c0,0.9,0.2,1.4,0.5,1.6
	c0.3,0.2,0.9,0.2,1.8-0.2v1.7c-0.2,0-0.4,0.1-0.7,0.2c-0.3,0.1-0.6,0.1-1,0.1c-0.3,0-0.7,0-1-0.1c-0.3,0-0.6-0.2-0.9-0.3
	c-0.2-0.2-0.4-0.4-0.5-0.7c-0.1-0.3-0.2-0.5-0.3-0.8c-0.1-0.3-0.1-0.6-0.1-1c-0.9,1-2,1.8-3.2,2.3c-1.2,0.5-2.5,0.8-3.9,0.8
	c-0.8,0-1.6-0.1-2.4-0.3c-0.7-0.2-1.4-0.6-2-1c-0.6-0.5-1.1-1-1.4-1.7c-0.4-0.7-0.5-1.6-0.5-2.4c0-3.2,2.2-5.1,6.6-5.7L235.3,20.3z
	 M239,21.4c-0.9,0.4-1.8,0.6-2.8,0.8c-0.9,0.1-1.9,0.2-2.8,0.3c-1.4,0-2.7,0.4-3.9,1.1c-0.9,0.6-1.5,1.7-1.4,2.9
	c0,0.5,0.1,1,0.3,1.5c0.2,0.4,0.5,0.8,0.9,1.1c0.4,0.3,0.8,0.5,1.3,0.6c0.5,0.1,1,0.2,1.5,0.2c0.9,0,1.7-0.1,2.6-0.3
	c0.8-0.2,1.5-0.5,2.2-1c0.6-0.4,1.2-1,1.6-1.7c0.4-0.8,0.6-1.6,0.6-2.5V21.4z"/>
<path class="st0" d="M249.1,31.3H247V12.4h2.2v2.6c0.8-0.9,1.7-1.6,2.7-2.3c1-0.6,2.2-0.9,3.4-0.9c1.1,0,2.2,0.2,3.2,0.6
	c1,0.4,1.9,1.2,2.5,2.1c0.4,0.6,0.7,1.3,0.8,2.1c0.1,0.7,0.1,1.5,0.1,2.2v12.4h-2.2V19c0.1-1.4-0.3-2.7-1.1-3.8
	c-1-0.9-2.4-1.4-3.8-1.3c-0.6,0-1.3,0.1-1.9,0.3c-0.5,0.2-1.1,0.5-1.5,0.8c-0.4,0.3-0.8,0.7-1.1,1.2c-0.3,0.4-0.6,0.9-0.7,1.4
	c-0.2,0.6-0.3,1.2-0.4,1.8c0,0.6-0.1,1.2-0.1,1.8L249.1,31.3z"/>
<path class="st0" d="M280.6,18.4c-0.3-1.3-1-2.4-2-3.3c-1-0.8-2.3-1.2-3.6-1.2c-1,0-2,0.2-2.9,0.7c-0.8,0.5-1.5,1.1-2,1.8
	c-0.5,0.8-0.9,1.7-1.1,2.6c-0.2,0.9-0.4,1.9-0.4,2.9c0,1,0.1,2,0.3,2.9c0.2,0.9,0.6,1.8,1.1,2.6c0.5,0.7,1.2,1.4,2,1.8
	c0.9,0.5,1.9,0.7,2.9,0.7c1.4,0.1,2.8-0.4,3.9-1.4c1-1,1.7-2.3,1.9-3.7h2.3c-0.2,1-0.5,2-0.9,2.9c-0.4,0.8-1,1.6-1.6,2.2
	c-0.7,0.6-1.5,1.1-2.4,1.4c-2.3,0.8-4.8,0.7-7.1-0.3c-1.1-0.5-2-1.2-2.7-2.1c-0.7-0.9-1.3-2-1.6-3.2c-0.3-1.3-0.5-2.6-0.5-3.9
	c0-1.3,0.2-2.6,0.6-3.8c0.4-1.2,0.9-2.2,1.7-3.2c0.7-0.9,1.7-1.7,2.7-2.2c1.2-0.6,2.4-0.8,3.7-0.8c1.9-0.1,3.8,0.5,5.3,1.6
	c1.5,1.2,2.4,3,2.5,4.9L280.6,18.4z"/>
<path class="st0" d="M288.9,22.4c0,1,0.1,2,0.4,2.9c0.2,0.9,0.6,1.7,1.2,2.4c0.5,0.7,1.2,1.2,2,1.6c0.9,0.4,1.8,0.6,2.8,0.6
	c1.3,0,2.6-0.4,3.7-1.1c1-0.8,1.8-1.9,2-3.2h2.4c-0.3,0.9-0.6,1.7-1.1,2.5c-0.4,0.8-1,1.4-1.6,2c-0.7,0.6-1.5,1-2.3,1.3
	c-1,0.3-2.1,0.5-3.1,0.5c-1.3,0-2.7-0.2-3.9-0.8c-1.1-0.5-2-1.2-2.7-2.1c-0.7-0.9-1.3-2-1.6-3.1c-0.3-1.3-0.5-2.6-0.5-3.9
	c0-1.3,0.2-2.6,0.6-3.9c0.4-1.2,1-2.2,1.7-3.2c0.7-0.9,1.7-1.6,2.7-2.2c1.1-0.5,2.4-0.8,3.6-0.8c2.4-0.1,4.6,0.9,6.1,2.7
	c1.5,1.8,2.2,4.4,2.2,7.8L288.9,22.4z M301.2,20.6c0-0.9-0.1-1.8-0.4-2.6c-0.2-0.8-0.6-1.5-1.1-2.1c-0.5-0.6-1.2-1.1-1.9-1.4
	c-0.8-0.4-1.7-0.5-2.6-0.5c-0.9,0-1.8,0.2-2.6,0.5c-0.7,0.4-1.4,0.8-1.9,1.5c-0.5,0.6-1,1.3-1.3,2.1c-0.3,0.8-0.5,1.7-0.6,2.6
	L301.2,20.6z"/>
<path d="M310.4,38.8h-2.2V12.4h2.2v3.3h0.1c0.3-0.6,0.7-1.2,1.2-1.6c0.5-0.5,1-0.9,1.6-1.2c0.6-0.3,1.2-0.6,1.8-0.7
	c0.6-0.2,1.2-0.3,1.9-0.3c1.3,0,2.7,0.2,3.9,0.8c1,0.5,1.9,1.2,2.6,2.1c0.7,0.9,1.2,2,1.5,3.2c0.3,1.3,0.5,2.6,0.5,3.9
	c0,1.3-0.2,2.6-0.5,3.8c-0.3,1.2-0.8,2.2-1.6,3.2c-0.7,0.9-1.6,1.7-2.6,2.2c-1.2,0.6-2.4,0.9-3.7,0.8c-1.3,0-2.7-0.3-3.8-0.9
	c-1.2-0.6-2.2-1.5-2.9-2.6L310.4,38.8z M310.4,22c0,1,0.1,2.1,0.4,3c0.3,0.9,0.7,1.8,1.3,2.5c0.5,0.7,1.2,1.3,2,1.7
	c0.8,0.4,1.7,0.7,2.7,0.6c1,0,2-0.2,2.9-0.7c0.8-0.4,1.5-1.1,2.1-1.8c0.6-0.8,1-1.7,1.2-2.7c0.2-1.1,0.3-2.2,0.3-3.3
	c0-1.1-0.1-2.1-0.5-3.2c-0.3-0.9-0.8-1.6-1.4-2.3c-0.6-0.6-1.3-1.1-2-1.4c-0.8-0.3-1.7-0.5-2.6-0.5c-0.9,0-1.9,0.2-2.7,0.6
	c-0.8,0.4-1.5,1-2,1.7c-0.6,0.8-1,1.6-1.2,2.6C310.5,19.8,310.4,20.9,310.4,22L310.4,22z"/>
<path d="M332.6,31.3h-2.2V12.4h2.2V16h0.1c0.4-1.3,1.3-2.4,2.4-3.2c1.2-0.6,2.5-1,3.8-0.9v2.4c-1.1-0.1-2.1,0.1-3.1,0.6
	c-0.8,0.4-1.4,1-1.9,1.7c-0.5,0.8-0.8,1.6-1,2.5c-0.2,1-0.3,2-0.3,3L332.6,31.3z"/>
<path d="M349.9,31.9c-1.2,0-2.3-0.2-3.4-0.7c-1.1-0.4-2-1-2.8-1.9c-0.8-0.9-1.5-2-1.9-3.1c-0.5-1.4-0.7-2.9-0.7-4.3
	c0-1.3,0.2-2.6,0.5-3.9c0.3-1.1,0.9-2.2,1.6-3.2c0.7-0.9,1.7-1.6,2.7-2.1c1.2-0.5,2.5-0.8,3.8-0.8c1.3,0,2.7,0.2,3.9,0.8
	c1.1,0.5,2,1.2,2.7,2.1c0.8,0.9,1.3,2,1.6,3.2c0.4,1.3,0.5,2.6,0.5,3.9c0,1.4-0.2,2.8-0.6,4.1c-0.4,1.2-1,2.2-1.8,3.1
	c-0.8,0.9-1.7,1.6-2.8,2C352.4,31.6,351.2,31.9,349.9,31.9z M356.4,21.9c0-1.1-0.1-2.1-0.4-3.1c-0.2-0.9-0.6-1.8-1.1-2.5
	c-0.5-0.7-1.2-1.3-2-1.7c-0.9-0.4-1.9-0.7-3-0.6c-1,0-2,0.2-2.9,0.7c-0.8,0.4-1.5,1-2,1.8c-0.5,0.8-0.9,1.6-1.1,2.6
	c-0.2,1-0.4,2-0.4,3c0,1.1,0.1,2.2,0.4,3.2c0.2,0.9,0.7,1.8,1.2,2.5c0.5,0.7,1.2,1.3,2,1.6c0.9,0.4,1.8,0.6,2.8,0.6
	c1,0,2-0.2,2.9-0.7c0.8-0.4,1.5-1.1,2-1.8c0.5-0.8,0.9-1.6,1.1-2.6C356.2,23.9,356.4,22.9,356.4,21.9z"/>
<path d="M365.5,12.4v21.4c0,0.7,0,1.4-0.1,2.1c-0.1,0.5-0.2,1.1-0.5,1.6c-0.3,0.4-0.7,0.8-1.1,0.9c-0.7,0.2-1.4,0.3-2.1,0.3
	c-0.5,0-1,0-1.4-0.1v-1.9c0.5,0.1,1,0.1,1.5,0c0.3,0,0.7-0.2,0.9-0.4c0.2-0.2,0.4-0.5,0.5-0.9c0.1-0.4,0.1-0.8,0.1-1.3V12.4H365.5z
	 M365.6,8.3h-2.4V5.1h2.4V8.3z"/>
<path d="M372.2,22.4c0,1,0.1,2,0.4,2.9c0.2,0.9,0.6,1.7,1.2,2.4c0.5,0.7,1.2,1.2,2,1.6c0.9,0.4,1.8,0.6,2.8,0.6
	c1.3,0,2.6-0.4,3.7-1.1c1-0.8,1.8-1.9,2-3.2h2.4c-0.3,0.9-0.6,1.7-1.1,2.5c-0.4,0.8-1,1.4-1.6,2c-0.7,0.6-1.5,1-2.3,1.3
	c-1,0.3-2.1,0.5-3.1,0.5c-1.3,0-2.7-0.2-3.9-0.8c-1.1-0.5-2-1.2-2.7-2.1c-0.7-0.9-1.3-2-1.6-3.1c-0.3-1.3-0.5-2.6-0.5-3.9
	c0-1.3,0.2-2.6,0.6-3.9c0.4-1.2,1-2.2,1.7-3.2c0.7-0.9,1.7-1.6,2.7-2.2c1.1-0.5,2.4-0.8,3.6-0.8c2.4-0.1,4.6,0.9,6.1,2.7
	c1.5,1.8,2.2,4.4,2.2,7.8L372.2,22.4z M384.5,20.6c0-0.9-0.1-1.8-0.4-2.6c-0.2-0.8-0.6-1.5-1.1-2.1c-0.5-0.6-1.2-1.1-1.9-1.4
	c-0.8-0.4-1.7-0.5-2.6-0.5c-0.9,0-1.8,0.2-2.6,0.5c-0.7,0.4-1.4,0.8-1.9,1.5c-0.5,0.6-1,1.3-1.3,2.1c-0.3,0.8-0.5,1.7-0.6,2.6
	L384.5,20.6z"/>
<path d="M404.5,18.4c-0.3-1.3-1-2.4-2-3.3c-1-0.8-2.3-1.2-3.6-1.2c-1,0-2,0.2-2.9,0.7c-0.8,0.5-1.5,1.1-2,1.8
	c-0.5,0.8-0.9,1.7-1.1,2.6c-0.2,0.9-0.4,1.9-0.4,2.9c0,1,0.1,2,0.3,2.9c0.2,0.9,0.6,1.8,1.1,2.6c0.5,0.7,1.2,1.4,2,1.8
	c0.9,0.5,1.9,0.7,2.9,0.7c1.4,0.1,2.8-0.4,3.9-1.4c1-1,1.7-2.3,1.9-3.7h2.3c-0.2,1-0.5,2-0.9,2.9c-0.4,0.8-1,1.6-1.6,2.2
	c-0.7,0.6-1.5,1.1-2.4,1.4c-2.3,0.8-4.8,0.7-7.1-0.3c-1.1-0.5-2-1.2-2.7-2.1c-0.7-0.9-1.3-2-1.6-3.2c-0.3-1.3-0.5-2.6-0.5-3.9
	c0-1.3,0.2-2.6,0.6-3.8c0.4-1.2,0.9-2.2,1.7-3.2c0.7-0.9,1.7-1.7,2.7-2.2c1.2-0.6,2.4-0.8,3.7-0.8c1.9-0.1,3.8,0.5,5.3,1.6
	c1.5,1.2,2.4,3,2.5,4.9L404.5,18.4z"/>
<path d="M418,31.4c-0.3,0-0.6,0.1-1.1,0.3c-0.5,0.1-1,0.2-1.5,0.2c-0.9,0.1-1.8-0.2-2.5-0.8c-0.7-0.8-1-1.9-0.9-2.9V14.3h-2.7v-1.8
	h2.7V7.2h2.2v5.3h3.5v1.8h-3.5v13c0,0.5,0,0.9,0,1.2c0,0.3,0.1,0.6,0.2,0.8c0.1,0.2,0.3,0.4,0.6,0.5c0.3,0.1,0.7,0.2,1.1,0.1
	c0.3,0,0.6,0,0.9-0.1c0.3,0,0.6-0.1,0.9-0.2L418,31.4z"/>
<path d="M422.8,25.4c0.2,1.3,0.8,2.6,1.8,3.4c1.1,0.7,2.5,1.1,3.8,1c0.7,0,1.4-0.1,2.1-0.3c0.5-0.2,1-0.4,1.4-0.8
	c0.4-0.3,0.7-0.7,0.9-1.1c0.2-0.4,0.3-0.9,0.3-1.3c0.1-0.8-0.3-1.6-0.9-2.1c-0.7-0.5-1.4-0.8-2.2-1.1c-1-0.3-1.9-0.5-2.9-0.7
	c-1-0.2-2-0.4-2.9-0.8c-0.9-0.3-1.6-0.9-2.2-1.6c-0.6-0.8-1-1.8-0.9-2.9c0-1.5,0.6-2.9,1.7-3.9c1.4-1.1,3.1-1.6,4.9-1.5
	c1.8-0.1,3.5,0.4,5,1.4c1.4,1.1,2.2,2.8,2.3,4.6h-2.2c-0.1-1.2-0.7-2.4-1.7-3.1c-1-0.6-2.2-0.9-3.4-0.9c-1.1-0.1-2.3,0.2-3.2,0.9
	c-0.7,0.6-1.1,1.4-1.1,2.4c0,0.8,0.3,1.5,0.9,2c0.7,0.5,1.4,0.9,2.2,1.1c0.9,0.3,1.9,0.5,2.9,0.7c1,0.2,2,0.5,2.9,0.9
	c0.9,0.4,1.6,0.9,2.2,1.6c0.6,0.8,1,1.8,0.9,2.8c0,0.8-0.2,1.7-0.6,2.4c-0.4,0.7-0.9,1.3-1.6,1.7c-0.7,0.5-1.6,0.8-2.4,1
	c-1,0.2-2,0.4-3.1,0.3c-1,0-2-0.1-3-0.5c-0.8-0.3-1.6-0.8-2.2-1.4c-0.6-0.6-1.1-1.3-1.4-2c-0.3-0.8-0.5-1.7-0.6-2.5L422.8,25.4z"/>
<path class="st1" d="M5.9,38.8H3.7V12.4h2.2v3.3H6c0.3-0.6,0.7-1.2,1.2-1.6c0.5-0.5,1-0.9,1.6-1.2c0.6-0.3,1.2-0.6,1.8-0.7
	c0.6-0.2,1.2-0.3,1.9-0.3c1.3,0,2.7,0.2,3.9,0.8c1,0.5,1.9,1.2,2.6,2.1c0.7,0.9,1.2,2,1.5,3.2c0.3,1.3,0.5,2.6,0.5,3.9
	c0,1.3-0.2,2.6-0.5,3.8c-0.3,1.2-0.8,2.2-1.6,3.2c-0.7,0.9-1.6,1.7-2.6,2.2c-1.2,0.6-2.4,0.9-3.7,0.8c-1.3,0-2.7-0.3-3.9-0.9
	c-1.2-0.6-2.2-1.5-2.9-2.6L5.9,38.8z M5.9,22c0,1,0.1,2.1,0.4,3c0.3,0.9,0.7,1.8,1.3,2.5c0.5,0.7,1.2,1.3,2,1.7
	c0.8,0.4,1.7,0.7,2.7,0.6c1,0,2-0.2,2.9-0.7c0.8-0.4,1.5-1.1,2.1-1.8c0.6-0.8,1-1.7,1.2-2.7c0.2-1.1,0.3-2.2,0.3-3.3
	c0-1.1-0.1-2.1-0.5-3.2c-0.3-0.9-0.8-1.6-1.4-2.3c-0.6-0.6-1.3-1.1-2-1.4c-0.8-0.3-1.7-0.5-2.6-0.5c-0.9,0-1.9,0.2-2.7,0.6
	c-0.8,0.4-1.5,1-2,1.7c-0.6,0.8-1,1.6-1.2,2.6C6.1,19.8,5.9,20.9,5.9,22L5.9,22z"/>
<path class="st1" d="M25.8,31.3V5.1H28v10c0.8-0.9,1.7-1.6,2.7-2.3c1-0.6,2.2-0.9,3.4-0.9c1.1,0,2.2,0.2,3.2,0.6
	c1,0.4,1.9,1.2,2.5,2.1c0.4,0.6,0.7,1.3,0.8,2.1c0.1,0.7,0.1,1.5,0.1,2.2v12.4h-2.2V19c0.1-1.4-0.3-2.7-1.1-3.8
	c-1-0.9-2.4-1.4-3.8-1.3c-0.6,0-1.3,0.1-1.9,0.3c-0.5,0.2-1.1,0.5-1.5,0.8c-0.4,0.3-0.8,0.7-1.1,1.2c-0.3,0.4-0.6,0.9-0.7,1.4
	c-0.2,0.6-0.3,1.2-0.4,1.8c0,0.6-0.1,1.2-0.1,1.8v10.2H25.8z"/>
<path class="st1" d="M46.3,8.3V5.1h2.4v3.2H46.3z M46.4,31.3V12.4h2.2v18.9H46.4z"/>
<path class="st1" d="M54.5,31.3V5.1h2.2v26.3H54.5z"/>
<path class="st1" d="M71,20.3c0.4,0,0.9-0.1,1.5-0.2c0.5-0.1,1-0.2,1.4-0.4c0.4-0.2,0.6-0.5,0.7-0.9c0.1-0.4,0.1-0.7,0.1-1.1
	c0-1-0.4-2-1.1-2.8c-1-0.8-2.3-1.2-3.6-1.1c-0.7,0-1.4,0.1-2.1,0.2c-0.6,0.1-1.2,0.4-1.7,0.7c-0.5,0.3-0.9,0.8-1.2,1.3
	c-0.3,0.6-0.5,1.3-0.6,2.1h-2.2c0-1,0.3-2,0.8-2.9c0.4-0.8,1-1.4,1.7-1.9c0.7-0.5,1.5-0.9,2.4-1.1C68,12,69,11.9,70,11.9
	c0.9,0,1.8,0.1,2.7,0.3c0.8,0.2,1.5,0.5,2.2,1c0.6,0.5,1.1,1.1,1.5,1.8c0.4,0.9,0.6,1.8,0.5,2.8v10.3c0,0.9,0.2,1.4,0.5,1.6
	c0.3,0.2,0.9,0.2,1.8-0.2v1.7c-0.2,0-0.4,0.1-0.7,0.2c-0.3,0.1-0.6,0.1-1,0.1c-0.3,0-0.7,0-1-0.1c-0.3,0-0.6-0.2-0.9-0.3
	c-0.2-0.2-0.4-0.4-0.5-0.7c-0.1-0.3-0.2-0.5-0.3-0.8c-0.1-0.3-0.1-0.6-0.1-1c-0.9,1-2,1.8-3.2,2.3c-1.2,0.5-2.5,0.8-3.9,0.8
	c-0.8,0-1.6-0.1-2.4-0.3c-0.7-0.2-1.4-0.6-2-1c-0.6-0.5-1.1-1-1.4-1.7c-0.4-0.7-0.5-1.6-0.5-2.4c0-3.2,2.2-5.1,6.6-5.7L71,20.3z
	 M74.6,21.4c-0.9,0.4-1.8,0.6-2.8,0.8c-0.9,0.1-1.9,0.2-2.8,0.3c-1.4,0-2.7,0.4-3.9,1.1c-0.9,0.6-1.5,1.7-1.4,2.9
	c0,0.5,0.1,1,0.3,1.5c0.2,0.4,0.5,0.8,0.9,1.1c0.4,0.3,0.8,0.5,1.3,0.6c0.5,0.1,1,0.2,1.5,0.2c0.9,0,1.7-0.1,2.6-0.3
	c0.8-0.2,1.5-0.5,2.2-1c0.6-0.4,1.2-1,1.6-1.7c0.4-0.8,0.6-1.6,0.6-2.5L74.6,21.4z"/>
<path class="st1" d="M97.2,5.1h2.2v26.3h-2.2V28h-0.1c-0.3,0.6-0.7,1.2-1.2,1.7c-0.5,0.5-1,0.9-1.6,1.2c-0.6,0.3-1.2,0.6-1.8,0.7
	c-0.6,0.2-1.2,0.3-1.9,0.3c-1.3,0-2.7-0.2-3.9-0.8c-1-0.5-1.9-1.2-2.6-2.1c-0.7-0.9-1.2-2-1.5-3.2c-0.3-1.3-0.5-2.6-0.5-3.9
	c0-1.3,0.2-2.6,0.5-3.8c0.3-1.2,0.8-2.2,1.6-3.2c0.7-0.9,1.6-1.7,2.6-2.2c1.2-0.6,2.4-0.9,3.7-0.8c1.3,0,2.7,0.3,3.8,0.9
	c1.2,0.6,2.2,1.5,2.9,2.6L97.2,5.1z M97.2,21.8c0-1-0.1-2.1-0.4-3c-0.3-0.9-0.7-1.8-1.3-2.5c-0.5-0.7-1.2-1.3-2-1.7
	c-0.8-0.4-1.7-0.7-2.7-0.6c-1,0-2,0.2-3,0.7c-0.8,0.4-1.5,1.1-2,1.8c-0.6,0.8-1,1.7-1.2,2.7c-0.2,1.1-0.3,2.2-0.3,3.3
	c0,1.1,0.1,2.1,0.5,3.2c0.3,0.9,0.8,1.6,1.4,2.3c0.6,0.6,1.3,1.1,2,1.4c0.8,0.3,1.7,0.5,2.6,0.5c0.9,0,1.9-0.2,2.7-0.6
	c0.8-0.4,1.5-1,2-1.7c0.6-0.8,1-1.6,1.2-2.6C97,24,97.2,22.9,97.2,21.8L97.2,21.8z"/>
<path class="st1" d="M106.2,22.4c0,1,0.1,2,0.4,2.9c0.2,0.9,0.6,1.7,1.2,2.4c0.5,0.7,1.2,1.2,2,1.6c0.9,0.4,1.8,0.6,2.8,0.6
	c1.3,0,2.6-0.4,3.7-1.1c1-0.8,1.8-1.9,2-3.2h2.4c-0.3,0.9-0.6,1.7-1.1,2.5c-0.4,0.8-1,1.4-1.6,2c-0.7,0.6-1.5,1-2.3,1.3
	c-1,0.3-2.1,0.5-3.1,0.5c-1.3,0-2.7-0.2-3.9-0.8c-1.1-0.5-2-1.2-2.7-2.1c-0.7-0.9-1.3-2-1.6-3.1c-0.3-1.3-0.5-2.6-0.5-3.9
	c0-1.3,0.2-2.6,0.6-3.9c0.4-1.2,1-2.2,1.7-3.2c0.7-0.9,1.7-1.6,2.7-2.2c1.1-0.5,2.4-0.8,3.6-0.8c2.3-0.1,4.6,0.9,6.1,2.7
	c1.5,1.8,2.2,4.4,2.2,7.8L106.2,22.4z M118.5,20.6c0-0.9-0.1-1.8-0.4-2.6c-0.2-0.8-0.6-1.5-1.1-2.1c-0.5-0.6-1.2-1.1-1.9-1.4
	c-0.8-0.4-1.7-0.5-2.6-0.5c-0.9,0-1.8,0.2-2.6,0.5c-0.7,0.4-1.4,0.8-1.9,1.5c-0.5,0.6-1,1.3-1.3,2.1c-0.3,0.8-0.5,1.7-0.6,2.6
	L118.5,20.6z"/>
<path class="st1" d="M125.5,31.3V5.1h2.2v26.3H125.5z"/>
<path class="st1" d="M135.7,38.8h-2.2V12.4h2.2v3.3h0.1c0.3-0.6,0.7-1.2,1.2-1.6c0.5-0.5,1-0.9,1.6-1.2c0.6-0.3,1.2-0.6,1.8-0.7
	c0.6-0.2,1.2-0.3,1.9-0.3c1.3,0,2.7,0.2,3.9,0.8c1,0.5,1.9,1.2,2.6,2.1c0.7,0.9,1.2,2,1.5,3.2c0.3,1.3,0.5,2.6,0.5,3.9
	c0,1.3-0.2,2.6-0.5,3.8c-0.3,1.2-0.8,2.2-1.6,3.2c-0.7,0.9-1.6,1.7-2.6,2.2c-1.2,0.6-2.4,0.9-3.7,0.8c-1.3,0-2.7-0.3-3.9-0.9
	c-1.2-0.6-2.2-1.5-2.9-2.6V38.8z M135.7,22c0,1,0.1,2.1,0.4,3c0.3,0.9,0.7,1.8,1.3,2.5c0.5,0.7,1.2,1.3,2,1.7
	c0.8,0.4,1.7,0.7,2.7,0.6c1,0,2-0.2,2.9-0.7c0.8-0.4,1.5-1.1,2.1-1.8c0.6-0.8,1-1.7,1.2-2.7c0.2-1.1,0.3-2.2,0.3-3.3
	c0-1.1-0.1-2.1-0.5-3.2c-0.3-0.9-0.8-1.6-1.4-2.3c-0.6-0.6-1.3-1.1-2-1.4c-0.8-0.3-1.7-0.5-2.6-0.5c-0.9,0-1.9,0.2-2.7,0.6
	c-0.8,0.4-1.5,1-2,1.7c-0.6,0.8-1,1.6-1.2,2.6C135.8,19.8,135.7,20.9,135.7,22L135.7,22z"/>
<path class="st1" d="M155.5,31.3V5.1h2.2v10c0.8-0.9,1.7-1.6,2.7-2.3c1-0.6,2.2-0.9,3.4-0.9c1.1,0,2.2,0.2,3.2,0.6
	c1,0.4,1.9,1.2,2.5,2.1c0.4,0.6,0.7,1.3,0.8,2.1c0.1,0.7,0.1,1.5,0.1,2.2v12.4h-2.2V19c0.1-1.4-0.3-2.7-1.1-3.8
	c-1-0.9-2.4-1.4-3.8-1.3c-0.6,0-1.3,0.1-1.9,0.3c-0.5,0.2-1.1,0.5-1.5,0.8c-0.4,0.3-0.8,0.7-1.1,1.2c-0.3,0.4-0.6,0.9-0.7,1.4
	c-0.2,0.6-0.3,1.2-0.4,1.8c0,0.6-0.1,1.2-0.1,1.8v10.2H155.5z"/>
<path class="st1" d="M176.1,8.3V5.1h2.4v3.2H176.1z M176.2,31.3V12.4h2.2v18.9L176.2,31.3z"/>
<path class="st1" d="M192.6,20.3c0.4,0,0.9-0.1,1.5-0.2c0.5-0.1,1-0.2,1.4-0.4c0.4-0.2,0.6-0.5,0.7-0.9c0.1-0.4,0.1-0.7,0.1-1.1
	c0-1-0.4-2-1.1-2.8c-1-0.8-2.3-1.2-3.6-1.1c-0.7,0-1.4,0.1-2.1,0.2c-0.6,0.1-1.2,0.4-1.7,0.7c-0.5,0.3-0.9,0.8-1.2,1.3
	c-0.3,0.6-0.5,1.3-0.6,2.1h-2.2c0-1,0.3-2,0.8-2.9c0.4-0.8,1-1.4,1.7-1.9c0.7-0.5,1.5-0.9,2.4-1.1c0.9-0.2,1.9-0.4,2.9-0.3
	c0.9,0,1.8,0.1,2.7,0.3c0.8,0.2,1.5,0.5,2.2,1c0.6,0.5,1.1,1.1,1.5,1.8c0.4,0.9,0.6,1.8,0.5,2.8v10.3c0,0.9,0.2,1.4,0.5,1.6
	c0.3,0.2,0.9,0.2,1.8-0.2v1.7c-0.2,0-0.4,0.1-0.7,0.2c-0.3,0.1-0.6,0.1-1,0.1c-0.3,0-0.7,0-1-0.1c-0.3,0-0.6-0.2-0.9-0.3
	c-0.2-0.2-0.4-0.4-0.5-0.7c-0.1-0.3-0.2-0.5-0.3-0.8c-0.1-0.3-0.1-0.6-0.1-1c-0.9,1-2,1.8-3.2,2.3c-1.2,0.5-2.5,0.8-3.9,0.8
	c-0.8,0-1.6-0.1-2.4-0.3c-0.7-0.2-1.4-0.6-2-1c-0.6-0.5-1.1-1-1.4-1.7c-0.4-0.7-0.5-1.6-0.5-2.4c0-3.2,2.2-5.1,6.6-5.7L192.6,20.3z
	 M196.3,21.4c-0.9,0.4-1.8,0.6-2.8,0.8c-0.9,0.1-1.9,0.2-2.8,0.3c-1.4,0-2.7,0.4-3.9,1.1c-0.9,0.6-1.5,1.7-1.4,2.9
	c0,0.5,0.1,1,0.3,1.5c0.2,0.4,0.5,0.8,0.9,1.1c0.4,0.3,0.8,0.5,1.3,0.6c0.5,0.1,1,0.2,1.5,0.2c0.9,0,1.7-0.1,2.6-0.3
	c0.8-0.2,1.5-0.5,2.2-1c0.6-0.4,1.2-1,1.6-1.7c0.4-0.8,0.6-1.6,0.6-2.5L196.3,21.4z"/>
<path class="st1" d="M219,5.1h2.2v26.3H219V28h-0.1c-0.3,0.6-0.7,1.2-1.2,1.7c-0.5,0.5-1,0.9-1.6,1.2c-0.6,0.3-1.2,0.6-1.8,0.7
	c-0.6,0.2-1.2,0.3-1.9,0.3c-1.3,0-2.7-0.2-3.9-0.8c-1-0.5-1.9-1.2-2.6-2.1c-0.7-0.9-1.2-2-1.5-3.2c-0.3-1.3-0.5-2.6-0.5-3.9
	c0-1.3,0.2-2.6,0.5-3.8c0.3-1.2,0.8-2.2,1.6-3.2c0.7-0.9,1.6-1.7,2.6-2.2c1.2-0.6,2.4-0.9,3.7-0.8c1.3,0,2.7,0.3,3.8,0.9
	c1.2,0.6,2.2,1.5,2.9,2.6L219,5.1z M219,21.8c0-1-0.1-2.1-0.4-3c-0.3-0.9-0.7-1.8-1.3-2.5c-0.5-0.7-1.2-1.3-2-1.7
	c-0.8-0.4-1.7-0.7-2.7-0.6c-1,0-2,0.2-3,0.7c-0.8,0.4-1.5,1.1-2,1.8c-0.6,0.8-1,1.7-1.2,2.7c-0.2,1.1-0.3,2.2-0.3,3.3
	c0,1.1,0.1,2.1,0.5,3.2c0.3,0.9,0.8,1.6,1.4,2.3c0.6,0.6,1.3,1.1,2,1.4c0.8,0.3,1.7,0.5,2.6,0.5c0.9,0,1.9-0.2,2.7-0.6
	c0.8-0.4,1.5-1,2-1.7c0.6-0.8,1-1.6,1.2-2.6C218.8,24,219,22.9,219,21.8L219,21.8z"/>
<path class="st1" d="M235.3,20.3c0.4,0,0.9-0.1,1.5-0.2c0.5-0.1,1-0.2,1.4-0.4c0.4-0.2,0.6-0.5,0.7-0.9c0.1-0.4,0.1-0.7,0.1-1.1
	c0-1-0.4-2-1.1-2.8c-1-0.8-2.3-1.2-3.6-1.1c-0.7,0-1.4,0.1-2.1,0.2c-0.6,0.1-1.2,0.4-1.7,0.7c-0.5,0.3-0.9,0.8-1.2,1.3
	c-0.3,0.6-0.5,1.3-0.6,2.1h-2.2c0-1,0.3-2,0.8-2.9c0.4-0.8,1-1.4,1.7-1.9c0.7-0.5,1.5-0.9,2.4-1.1c0.9-0.2,1.9-0.4,2.9-0.3
	c0.9,0,1.8,0.1,2.7,0.3c0.8,0.2,1.5,0.5,2.2,1c0.6,0.5,1.1,1.1,1.5,1.8c0.4,0.9,0.6,1.8,0.5,2.8v10.3c0,0.9,0.2,1.4,0.5,1.6
	c0.3,0.2,0.9,0.2,1.8-0.2v1.7c-0.2,0-0.4,0.1-0.7,0.2c-0.3,0.1-0.6,0.1-1,0.1c-0.3,0-0.7,0-1-0.1c-0.3,0-0.6-0.2-0.9-0.3
	c-0.2-0.2-0.4-0.4-0.5-0.7c-0.1-0.3-0.2-0.5-0.3-0.8c-0.1-0.3-0.1-0.6-0.1-1c-0.9,1-2,1.8-3.2,2.3c-1.2,0.5-2.5,0.8-3.9,0.8
	c-0.8,0-1.6-0.1-2.4-0.3c-0.7-0.2-1.4-0.6-2-1c-0.6-0.5-1.1-1-1.4-1.7c-0.4-0.7-0.5-1.6-0.5-2.4c0-3.2,2.2-5.1,6.6-5.7L235.3,20.3z
	 M239,21.4c-0.9,0.4-1.8,0.6-2.8,0.8c-0.9,0.1-1.9,0.2-2.8,0.3c-1.4,0-2.7,0.4-3.9,1.1c-0.9,0.6-1.5,1.7-1.4,2.9
	c0,0.5,0.1,1,0.3,1.5c0.2,0.4,0.5,0.8,0.9,1.1c0.4,0.3,0.8,0.5,1.3,0.6c0.5,0.1,1,0.2,1.5,0.2c0.9,0,1.7-0.1,2.6-0.3
	c0.8-0.2,1.5-0.5,2.2-1c0.6-0.4,1.2-1,1.6-1.7c0.4-0.8,0.6-1.6,0.6-2.5V21.4z"/>
<path class="st1" d="M249.1,31.3H247V12.4h2.2v2.6c0.8-0.9,1.7-1.6,2.7-2.3c1-0.6,2.2-0.9,3.4-0.9c1.1,0,2.2,0.2,3.2,0.6
	c1,0.4,1.9,1.2,2.5,2.1c0.4,0.6,0.7,1.3,0.8,2.1c0.1,0.7,0.1,1.5,0.1,2.2v12.4h-2.2V19c0.1-1.4-0.3-2.7-1.1-3.8
	c-1-0.9-2.4-1.4-3.8-1.3c-0.6,0-1.3,0.1-1.9,0.3c-0.5,0.2-1.1,0.5-1.5,0.8c-0.4,0.3-0.8,0.7-1.1,1.2c-0.3,0.4-0.6,0.9-0.7,1.4
	c-0.2,0.6-0.3,1.2-0.4,1.8c0,0.6-0.1,1.2-0.1,1.8L249.1,31.3z"/>
<path class="st1" d="M280.6,18.4c-0.3-1.3-1-2.4-2-3.3c-1-0.8-2.3-1.2-3.6-1.2c-1,0-2,0.2-2.9,0.7c-0.8,0.5-1.5,1.1-2,1.8
	c-0.5,0.8-0.9,1.7-1.1,2.6c-0.2,0.9-0.4,1.9-0.4,2.9c0,1,0.1,2,0.3,2.9c0.2,0.9,0.6,1.8,1.1,2.6c0.5,0.7,1.2,1.4,2,1.8
	c0.9,0.5,1.9,0.7,2.9,0.7c1.4,0.1,2.8-0.4,3.9-1.4c1-1,1.7-2.3,1.9-3.7h2.3c-0.2,1-0.5,2-0.9,2.9c-0.4,0.8-1,1.6-1.6,2.2
	c-0.7,0.6-1.5,1.1-2.4,1.4c-2.3,0.8-4.8,0.7-7.1-0.3c-1.1-0.5-2-1.2-2.7-2.1c-0.7-0.9-1.3-2-1.6-3.2c-0.3-1.3-0.5-2.6-0.5-3.9
	c0-1.3,0.2-2.6,0.6-3.8c0.4-1.2,0.9-2.2,1.7-3.2c0.7-0.9,1.7-1.7,2.7-2.2c1.2-0.6,2.4-0.8,3.7-0.8c1.9-0.1,3.8,0.5,5.3,1.6
	c1.5,1.2,2.4,3,2.5,4.9L280.6,18.4z"/>
<path class="st1" d="M288.9,22.4c0,1,0.1,2,0.4,2.9c0.2,0.9,0.6,1.7,1.2,2.4c0.5,0.7,1.2,1.2,2,1.6c0.9,0.4,1.8,0.6,2.8,0.6
	c1.3,0,2.6-0.4,3.7-1.1c1-0.8,1.8-1.9,2-3.2h2.4c-0.3,0.9-0.6,1.7-1.1,2.5c-0.4,0.8-1,1.4-1.6,2c-0.7,0.6-1.5,1-2.3,1.3
	c-1,0.3-2.1,0.5-3.1,0.5c-1.3,0-2.7-0.2-3.9-0.8c-1.1-0.5-2-1.2-2.7-2.1c-0.7-0.9-1.3-2-1.6-3.1c-0.3-1.3-0.5-2.6-0.5-3.9
	c0-1.3,0.2-2.6,0.6-3.9c0.4-1.2,1-2.2,1.7-3.2c0.7-0.9,1.7-1.6,2.7-2.2c1.1-0.5,2.4-0.8,3.6-0.8c2.4-0.1,4.6,0.9,6.1,2.7
	c1.5,1.8,2.2,4.4,2.2,7.8L288.9,22.4z M301.2,20.6c0-0.9-0.1-1.8-0.4-2.6c-0.2-0.8-0.6-1.5-1.1-2.1c-0.5-0.6-1.2-1.1-1.9-1.4
	c-0.8-0.4-1.7-0.5-2.6-0.5c-0.9,0-1.8,0.2-2.6,0.5c-0.7,0.4-1.4,0.8-1.9,1.5c-0.5,0.6-1,1.3-1.3,2.1c-0.3,0.8-0.5,1.7-0.6,2.6
	L301.2,20.6z"/>
<path class="st1" d="M310.4,38.8h-2.2V12.4h2.2v3.3h0.1c0.3-0.6,0.7-1.2,1.2-1.6c0.5-0.5,1-0.9,1.6-1.2c0.6-0.3,1.2-0.6,1.8-0.7
	c0.6-0.2,1.2-0.3,1.9-0.3c1.3,0,2.7,0.2,3.9,0.8c1,0.5,1.9,1.2,2.6,2.1c0.7,0.9,1.2,2,1.5,3.2c0.3,1.3,0.5,2.6,0.5,3.9
	c0,1.3-0.2,2.6-0.5,3.8c-0.3,1.2-0.8,2.2-1.6,3.2c-0.7,0.9-1.6,1.7-2.6,2.2c-1.2,0.6-2.4,0.9-3.7,0.8c-1.3,0-2.7-0.3-3.8-0.9
	c-1.2-0.6-2.2-1.5-2.9-2.6L310.4,38.8z M310.4,22c0,1,0.1,2.1,0.4,3c0.3,0.9,0.7,1.8,1.3,2.5c0.5,0.7,1.2,1.3,2,1.7
	c0.8,0.4,1.7,0.7,2.7,0.6c1,0,2-0.2,2.9-0.7c0.8-0.4,1.5-1.1,2.1-1.8c0.6-0.8,1-1.7,1.2-2.7c0.2-1.1,0.3-2.2,0.3-3.3
	c0-1.1-0.1-2.1-0.5-3.2c-0.3-0.9-0.8-1.6-1.4-2.3c-0.6-0.6-1.3-1.1-2-1.4c-0.8-0.3-1.7-0.5-2.6-0.5c-0.9,0-1.9,0.2-2.7,0.6
	c-0.8,0.4-1.5,1-2,1.7c-0.6,0.8-1,1.6-1.2,2.6C310.5,19.8,310.4,20.9,310.4,22L310.4,22z"/>
<path class="st1" d="M332.6,31.3h-2.2V12.4h2.2V16h0.1c0.4-1.3,1.3-2.4,2.4-3.2c1.2-0.6,2.5-1,3.8-0.9v2.4c-1.1-0.1-2.1,0.1-3.1,0.6
	c-0.8,0.4-1.4,1-1.9,1.7c-0.5,0.8-0.8,1.6-1,2.5c-0.2,1-0.3,2-0.3,3L332.6,31.3z"/>
<path class="st1" d="M349.9,31.9c-1.2,0-2.3-0.2-3.4-0.7c-1.1-0.4-2-1-2.8-1.9c-0.8-0.9-1.5-2-1.9-3.1c-0.5-1.4-0.7-2.9-0.7-4.3
	c0-1.3,0.2-2.6,0.5-3.9c0.3-1.1,0.9-2.2,1.6-3.2c0.7-0.9,1.7-1.6,2.7-2.1c1.2-0.5,2.5-0.8,3.8-0.8c1.3,0,2.7,0.2,3.9,0.8
	c1.1,0.5,2,1.2,2.7,2.1c0.8,0.9,1.3,2,1.6,3.2c0.4,1.3,0.5,2.6,0.5,3.9c0,1.4-0.2,2.8-0.6,4.1c-0.4,1.2-1,2.2-1.8,3.1
	c-0.8,0.9-1.7,1.6-2.8,2C352.4,31.6,351.2,31.9,349.9,31.9z M356.4,21.9c0-1.1-0.1-2.1-0.4-3.1c-0.2-0.9-0.6-1.8-1.1-2.5
	c-0.5-0.7-1.2-1.3-2-1.7c-0.9-0.4-1.9-0.7-3-0.6c-1,0-2,0.2-2.9,0.7c-0.8,0.4-1.5,1-2,1.8c-0.5,0.8-0.9,1.6-1.1,2.6
	c-0.2,1-0.4,2-0.4,3c0,1.1,0.1,2.2,0.4,3.2c0.2,0.9,0.7,1.8,1.2,2.5c0.5,0.7,1.2,1.3,2,1.6c0.9,0.4,1.8,0.6,2.8,0.6
	c1,0,2-0.2,2.9-0.7c0.8-0.4,1.5-1.1,2-1.8c0.5-0.8,0.9-1.6,1.1-2.6C356.2,23.9,356.4,22.9,356.4,21.9z"/>
<path class="st1" d="M365.5,12.4v21.4c0,0.7,0,1.4-0.1,2.1c-0.1,0.5-0.2,1.1-0.5,1.6c-0.3,0.4-0.7,0.8-1.1,0.9
	c-0.7,0.2-1.4,0.3-2.1,0.3c-0.5,0-1,0-1.4-0.1v-1.9c0.5,0.1,1,0.1,1.5,0c0.3,0,0.7-0.2,0.9-0.4c0.2-0.2,0.4-0.5,0.5-0.9
	c0.1-0.4,0.1-0.8,0.1-1.3V12.4H365.5z M365.6,8.3h-2.4V5.1h2.4V8.3z"/>
<path class="st1" d="M372.2,22.4c0,1,0.1,2,0.4,2.9c0.2,0.9,0.6,1.7,1.2,2.4c0.5,0.7,1.2,1.2,2,1.6c0.9,0.4,1.8,0.6,2.8,0.6
	c1.3,0,2.6-0.4,3.7-1.1c1-0.8,1.8-1.9,2-3.2h2.4c-0.3,0.9-0.6,1.7-1.1,2.5c-0.4,0.8-1,1.4-1.6,2c-0.7,0.6-1.5,1-2.3,1.3
	c-1,0.3-2.1,0.5-3.1,0.5c-1.3,0-2.7-0.2-3.9-0.8c-1.1-0.5-2-1.2-2.7-2.1c-0.7-0.9-1.3-2-1.6-3.1c-0.3-1.3-0.5-2.6-0.5-3.9
	c0-1.3,0.2-2.6,0.6-3.9c0.4-1.2,1-2.2,1.7-3.2c0.7-0.9,1.7-1.6,2.7-2.2c1.1-0.5,2.4-0.8,3.6-0.8c2.4-0.1,4.6,0.9,6.1,2.7
	c1.5,1.8,2.2,4.4,2.2,7.8L372.2,22.4z M384.5,20.6c0-0.9-0.1-1.8-0.4-2.6c-0.2-0.8-0.6-1.5-1.1-2.1c-0.5-0.6-1.2-1.1-1.9-1.4
	c-0.8-0.4-1.7-0.5-2.6-0.5c-0.9,0-1.8,0.2-2.6,0.5c-0.7,0.4-1.4,0.8-1.9,1.5c-0.5,0.6-1,1.3-1.3,2.1c-0.3,0.8-0.5,1.7-0.6,2.6
	L384.5,20.6z"/>
<path class="st1" d="M404.5,18.4c-0.3-1.3-1-2.4-2-3.3c-1-0.8-2.3-1.2-3.6-1.2c-1,0-2,0.2-2.9,0.7c-0.8,0.5-1.5,1.1-2,1.8
	c-0.5,0.8-0.9,1.7-1.1,2.6c-0.2,0.9-0.4,1.9-0.4,2.9c0,1,0.1,2,0.3,2.9c0.2,0.9,0.6,1.8,1.1,2.6c0.5,0.7,1.2,1.4,2,1.8
	c0.9,0.5,1.9,0.7,2.9,0.7c1.4,0.1,2.8-0.4,3.9-1.4c1-1,1.7-2.3,1.9-3.7h2.3c-0.2,1-0.5,2-0.9,2.9c-0.4,0.8-1,1.6-1.6,2.2
	c-0.7,0.6-1.5,1.1-2.4,1.4c-2.3,0.8-4.8,0.7-7.1-0.3c-1.1-0.5-2-1.2-2.7-2.1c-0.7-0.9-1.3-2-1.6-3.2c-0.3-1.3-0.5-2.6-0.5-3.9
	c0-1.3,0.2-2.6,0.6-3.8c0.4-1.2,0.9-2.2,1.7-3.2c0.7-0.9,1.7-1.7,2.7-2.2c1.2-0.6,2.4-0.8,3.7-0.8c1.9-0.1,3.8,0.5,5.3,1.6
	c1.5,1.2,2.4,3,2.5,4.9L404.5,18.4z"/>
<path class="st1" d="M418,31.4c-0.3,0-0.6,0.1-1.1,0.3c-0.5,0.1-1,0.2-1.5,0.2c-0.9,0.1-1.8-0.2-2.5-0.8c-0.7-0.8-1-1.9-0.9-2.9
	V14.3h-2.7v-1.8h2.7V7.2h2.2v5.3h3.5v1.8h-3.5v13c0,0.5,0,0.9,0,1.2c0,0.3,0.1,0.6,0.2,0.8c0.1,0.2,0.3,0.4,0.6,0.5
	c0.3,0.1,0.7,0.2,1.1,0.1c0.3,0,0.6,0,0.9-0.1c0.3,0,0.6-0.1,0.9-0.2L418,31.4z"/>
<path class="st1" d="M422.8,25.4c0.2,1.3,0.8,2.6,1.8,3.4c1.1,0.7,2.5,1.1,3.8,1c0.7,0,1.4-0.1,2.1-0.3c0.5-0.2,1-0.4,1.4-0.8
	c0.4-0.3,0.7-0.7,0.9-1.1c0.2-0.4,0.3-0.9,0.3-1.3c0.1-0.8-0.3-1.6-0.9-2.1c-0.7-0.5-1.4-0.8-2.2-1.1c-1-0.3-1.9-0.5-2.9-0.7
	c-1-0.2-2-0.4-2.9-0.8c-0.9-0.3-1.6-0.9-2.2-1.6c-0.6-0.8-1-1.8-0.9-2.9c0-1.5,0.6-2.9,1.7-3.9c1.4-1.1,3.1-1.6,4.9-1.5
	c1.8-0.1,3.5,0.4,5,1.4c1.4,1.1,2.2,2.8,2.3,4.6h-2.2c-0.1-1.2-0.7-2.4-1.7-3.1c-1-0.6-2.2-0.9-3.4-0.9c-1.1-0.1-2.3,0.2-3.2,0.9
	c-0.7,0.6-1.1,1.4-1.1,2.4c0,0.8,0.3,1.5,0.9,2c0.7,0.5,1.4,0.9,2.2,1.1c0.9,0.3,1.9,0.5,2.9,0.7c1,0.2,2,0.5,2.9,0.9
	c0.9,0.4,1.6,0.9,2.2,1.6c0.6,0.8,1,1.8,0.9,2.8c0,0.8-0.2,1.7-0.6,2.4c-0.4,0.7-0.9,1.3-1.6,1.7c-0.7,0.5-1.6,0.8-2.4,1
	c-1,0.2-2,0.4-3.1,0.3c-1,0-2-0.1-3-0.5c-0.8-0.3-1.6-0.8-2.2-1.4c-0.6-0.6-1.1-1.3-1.4-2c-0.3-0.8-0.5-1.7-0.6-2.5L422.8,25.4z"/>
</svg>
